<svg id="Group_870" data-name="Group 870" xmlns="http://www.w3.org/2000/svg" width="17.225" height="17.225" viewBox="0 0 17.225 17.225">
  <path id="Path_651" data-name="Path 651" d="M10.467,0H6.757A6.786,6.786,0,0,0,0,6.757,6.5,6.5,0,0,0,6.492,13.25v3.312a.487.487,0,0,0,.132.4.688.688,0,0,0,.53.265.487.487,0,0,0,.4-.132,84.02,84.02,0,0,0,7.022-4.77,7.225,7.225,0,0,0,2.65-5.565h0A6.786,6.786,0,0,0,10.467,0ZM13.78,11.262c-.927.795-4.24,2.915-5.962,4.107V12.587a.626.626,0,0,0-.662-.662h-.4A5.083,5.083,0,0,1,1.325,6.757,5.373,5.373,0,0,1,6.757,1.325h3.577A5.4,5.4,0,0,1,15.9,6.757,5.857,5.857,0,0,1,13.78,11.262Z" fill="#fff"/>
</svg>
