<svg xmlns="http://www.w3.org/2000/svg" width="31.562" height="25.251" viewBox="0 0 31.562 25.251">
  <path id="Twitter_Logo" data-name="Twitter Logo" d="M771.951,19.984a13.106,13.106,0,0,1-3.719,1,6.413,6.413,0,0,0,2.847-3.526,13.1,13.1,0,0,1-4.112,1.547A6.516,6.516,0,0,0,762.24,17a6.426,6.426,0,0,0-6.476,6.375,6.3,6.3,0,0,0,.168,1.452,18.482,18.482,0,0,1-13.347-6.66,6.266,6.266,0,0,0-.877,3.2,6.349,6.349,0,0,0,2.88,5.306,6.533,6.533,0,0,1-2.932-.8c0,.027,0,.053,0,.08a6.4,6.4,0,0,0,5.194,6.251,6.591,6.591,0,0,1-2.924.109,6.469,6.469,0,0,0,6.049,4.427,13.12,13.12,0,0,1-8.042,2.729,13.264,13.264,0,0,1-1.545-.089,18.535,18.535,0,0,0,9.926,2.865,18.148,18.148,0,0,0,18.424-18.137q0-.415-.019-.825A13.03,13.03,0,0,0,771.951,19.984Z" transform="translate(-740.389 -16.995)" fill="#fff"/>
</svg>
