<svg xmlns="http://www.w3.org/2000/svg" width="22.632" height="15.369" viewBox="0 0 22.632 15.369">
  <g id="Group_871" data-name="Group 871" transform="translate(0 0)">
    <path id="Path_653" data-name="Path 653" d="M55.785,11.5a.64.64,0,0,0-.927,0L52.6,13.752V4.212A3.28,3.28,0,0,0,49.292.9h-5.83a.626.626,0,0,0-.662.662.626.626,0,0,0,.662.662h5.83A2.038,2.038,0,0,1,51.28,4.212v9.54L49.027,11.5a.656.656,0,0,0-.927.927l3.312,3.312a.487.487,0,0,0,.4.132,1.335,1.335,0,0,0,.4-.132l3.312-3.312C56.05,12.162,56.05,11.765,55.785,11.5Z" transform="translate(-33.326 -0.9)" fill="#fff"/>
    <path id="Path_654" data-name="Path 654" d="M48.039,14.763h-5.83a2.038,2.038,0,0,1-1.987-1.987V3.369l2.252,2.252a.487.487,0,0,0,.4.132c.132,0,.4,0,.4-.132a.64.64,0,0,0,0-.927l-3.18-3.445a.64.64,0,0,0-.927,0L35.849,4.561a.656.656,0,0,0,.927.927l2.252-2.252v9.672a3.28,3.28,0,0,0,3.312,3.312h5.7a.626.626,0,0,0,.662-.662A.742.742,0,0,0,48.039,14.763Z" transform="translate(-35.65 -0.851)" fill="#fff"/>
  </g>
</svg>
