<svg xmlns="http://www.w3.org/2000/svg" width="17.754" height="16.563" viewBox="0 0 17.754 16.563">
  <g id="Group_869" data-name="Group 869" transform="translate(0 0)">
    <path id="Path_650" data-name="Path 650" d="M84.245,16.862h0c-2.252,0-8.745-5.962-8.745-11.527A5.076,5.076,0,0,1,80.27.3a5.219,5.219,0,0,1,4.107,2.385A5.011,5.011,0,0,1,88.485.3a5.076,5.076,0,0,1,4.77,5.035C92.99,10.9,86.5,16.73,84.245,16.862ZM80.137,1.625a3.657,3.657,0,0,0-3.445,3.71c0,5.035,6.095,10.07,7.42,10.2,1.325,0,7.42-5.167,7.42-10.2a3.657,3.657,0,0,0-3.445-3.71c-2.252,0-3.445,2.517-3.445,2.65-.265.53-1.06.53-1.192,0A3.75,3.75,0,0,0,80.137,1.625Z" transform="translate(-75.5 -0.3)" fill="#fff"/>
  </g>
</svg>
