<svg xmlns="http://www.w3.org/2000/svg" width="44.706" height="44.706" viewBox="0 0 44.706 44.706">
  <g id="Group_5079" data-name="Group 5079" transform="translate(-1129 -967)">
    <ellipse id="Ellipse_46" data-name="Ellipse 46" cx="22.353" cy="22.353" rx="22.353" ry="22.353" transform="translate(1129 967)" fill="#1a1a1a" opacity="0.616"/>
    <path id="Path_950" data-name="Path 950" d="M377.757,188.711H352.81V163.756h5.611v15.677H369.31a2.285,2.285,0,1,1,0,4.566h-2.75a.624.624,0,1,1,0-1.247h2.75c.992,0,1.14-.655,1.14-1.046,0-.468-.2-1.026-1.14-1.026h-4.762V185.1h5.026c2.2,0,3.512-1.221,3.512-3.267a2.527,2.527,0,0,0-1.5-2.469l-1.211-.563,1.209-.568a2.483,2.483,0,0,0,1.311-2.222c0-2.014-1.294-3.169-3.549-3.169h-4.8v4.215h4.591c.511,0,1.121-.162,1.121-.932s-.61-.932-1.121-.932H366.56a.624.624,0,1,1,0-1.247h2.579a2.186,2.186,0,1,1,0,4.358h-5.18c-.023,0-.047,0-.07,0H359.81V166.552a.624.624,0,1,1,1.247,0v10.51H363.3V171.6h6.047c2.913,0,4.8,1.733,4.8,4.416a3.726,3.726,0,0,1-1.176,2.754,3.759,3.759,0,0,1,1.366,3.067c0,2.742-1.868,4.514-4.759,4.514H363.3V180.68h-6.127V165h-3.117v22.461H376.51V165H360.425a.624.624,0,1,1,0-1.247h17.332Z" transform="translate(786.693 812.762)" fill="#fff"/>
  </g>
</svg>
