<svg id="Group_938" data-name="Group 938" xmlns="http://www.w3.org/2000/svg" width="120.124" height="167.318" viewBox="0 0 120.124 167.318">
  <path id="Path_825" data-name="Path 825" d="M375.617,340.357h14.737s7.513.463,7.513-5.251c0-4.688-3.677-5.586-7.489-5.428l-14.761-.085a71.683,71.683,0,0,1,5.486-20.862,50.272,50.272,0,0,1,10.98-16.027,48.847,48.847,0,0,1,15.7-10.21,56.919,56.919,0,0,1,39.964,0,44.842,44.842,0,0,1,14.6,9.55,38.889,38.889,0,0,1,8.892,13.613,43.545,43.545,0,0,1,2.968,15.808,40.4,40.4,0,0,1-3.187,16.578,49.159,49.159,0,0,1-8.563,13.065,81.063,81.063,0,0,1-12.3,10.974q-6.918,5.055-14.381,10.1-9.877,6.808-18.113,13.391a50.335,50.335,0,0,0-12.846,14.932h59.324s6.122.18,6.122-5.4c0-5.479-6.122-5.364-6.122-5.364H429.834c3.784-2.868,7.8-5.763,11.985-8.642q7.612-5.164,14.679-10.32a91.788,91.788,0,0,0,13.933-12.438,60.216,60.216,0,0,0,10.417-15.921,51.194,51.194,0,0,0,4.122-20.956,54.459,54.459,0,0,0-3.69-19.683,49.819,49.819,0,0,0-11.327-17.352A55.7,55.7,0,0,0,451.9,272.56a67.616,67.616,0,0,0-48.18-.033,59.514,59.514,0,0,0-19.12,12.445,61.077,61.077,0,0,0-13.343,19.409,82.621,82.621,0,0,0-6.332,23.979,10.763,10.763,0,0,0,10.694,12Z" transform="translate(-364.853 -268.107)" fill="#a3a3a3"/>
  <path id="Path_826" data-name="Path 826" d="M473.591,389.124l.024,3.056v10.658H375.907V383.955a57.51,57.51,0,0,1,7.245-16.469,83.477,83.477,0,0,1,11.09-13.723,124.128,124.128,0,0,1,13.278-11.528q7.032-5.265,13.616-9.878,5.046-3.507,9.991-7.358,4.936-3.836,8.892-7.574a39.33,39.33,0,0,0,6.368-7.574,20.28,20.28,0,0,0,2.8-9.251c0-7.756-2.472-12.116-6.642-16a21.9,21.9,0,0,0-15.483-5.821c-7.464,0-13.577,2.454-18.262,7.577a28.212,28.212,0,0,0-5.893,9.632c-1.671,4.353.764,6.724,3.848,7.373,5.187,1.1,6.773-5.574,10.027-9.629,2.457-3.059,5.814-4.186,10.28-4.186a11.251,11.251,0,0,1,8.152,2.941,10.421,10.421,0,0,1,2.822,9.568c-.518,3.087-3.452,5.69-5.419,7.55-2.368,2.237-5.093,4.56-8.1,6.892-3.218,2.5-6.423,4.862-9.568,7.041q-6.712,4.712-13.891,10.079a136.039,136.039,0,0,0-14.441,12.533,95.262,95.262,0,0,0-12.508,15.482,68.773,68.773,0,0,0-8.974,20.971v31H484.382v-25.3s.441-6.618-5.461-6.618C472.808,381.687,473.591,389.124,473.591,389.124Z" transform="translate(-364.266 -246.284)" fill="#a3a3a3"/>
</svg>
