<svg xmlns="http://www.w3.org/2000/svg" width="275.874" height="57.212" viewBox="0 0 275.874 57.212">
  <g id="Group_5083" data-name="Group 5083" transform="translate(-180.025 -261.211)">
    <g id="Group_954" data-name="Group 954" transform="translate(251.45 272.431)">
      <path id="Path_953" data-name="Path 953" d="M291.859,309.695V279.048h5.983v25.309h13.9v5.337Z" transform="translate(-291.859 -278.876)"/>
      <path id="Path_954" data-name="Path 954" d="M328.592,283.342v-4.563h5.725v4.563Zm.086,26.256V287.172h5.6V309.6Z" transform="translate(-305.132 -278.779)"/>
      <path id="Path_955" data-name="Path 955" d="M358.622,314.2V300.641c0-3.056-1.937-4.089-3.7-4.089s-3.745,1.033-3.745,4.089V314.2h-5.6V291.774h5.466v2.067a7.673,7.673,0,0,1,5.6-2.325,7.279,7.279,0,0,1,5.294,1.981,8.308,8.308,0,0,1,2.281,6.369V314.2Z" transform="translate(-311.27 -283.381)"/>
      <path id="Path_956" data-name="Path 956" d="M396.183,309.695l-5.51-9.34-2.367,2.668v6.672h-5.6V279.048h5.6v17.39l7.446-9.169h6.758l-8.006,9.04,8.608,13.386Z" transform="translate(-324.686 -278.876)"/>
      <path id="Path_957" data-name="Path 957" d="M481.114,309.695H468.287V279.048H480.6c5.983,0,9.47,3.357,9.47,8.609a7.087,7.087,0,0,1-3.788,6.327,7.121,7.121,0,0,1,4.218,6.887C490.5,306.6,486.581,309.695,481.114,309.695Zm-.99-25.309H474.27v7.059h5.854c2.539,0,3.959-1.42,3.959-3.53S482.664,284.385,480.124,284.385Zm.388,12.439H474.27v7.533h6.242a3.629,3.629,0,0,0,4-3.788C484.514,298.5,483.223,296.825,480.512,296.825Z" transform="translate(-355.607 -278.876)"/>
      <path id="Path_958" data-name="Path 958" d="M523.035,314.346V312.28a7.673,7.673,0,0,1-5.6,2.324,7.279,7.279,0,0,1-5.294-1.98,8.309,8.309,0,0,1-2.281-6.37V291.92h5.6v13.559c0,3.056,1.937,4.089,3.7,4.089s3.744-1.033,3.744-4.089V291.92h5.6v22.426Z" transform="translate(-370.63 -283.527)"/>
      <path id="Path_959" data-name="Path 959" d="M547.116,283.342v-4.563h5.724v4.563ZM547.2,309.6V287.172h5.6V309.6Z" transform="translate(-384.091 -278.779)"/>
      <path id="Path_960" data-name="Path 960" d="M570.4,309.695c-4.605,0-6.543-3.228-6.543-6.413V279.048h5.6v23.889c0,1.334.559,2.023,1.98,2.023h2.152v4.735Z" transform="translate(-390.139 -278.876)"/>
      <path id="Path_961" data-name="Path 961" d="M595.867,309.695v-2.109a6.734,6.734,0,0,1-5.553,2.367,7.922,7.922,0,0,1-5.509-2.023c-2.239-2.238-2.281-6.112-2.281-9.47s.043-7.188,2.281-9.426a7.81,7.81,0,0,1,5.466-2.023,6.718,6.718,0,0,1,5.466,2.239v-10.2h5.6v30.647Zm-3.96-17.647c-3.358,0-3.788,2.755-3.788,6.413s.43,6.456,3.788,6.456,3.831-2.8,3.831-6.456S595.265,292.048,591.907,292.048Z" transform="translate(-396.885 -278.876)"/>
    </g>
    <path id="Path_962" data-name="Path 962" d="M235.193,316.4H180.025V261.211h12.407v34.667h24.08c3.158,0,5.279,2.02,5.279,5.028,0,3.033-2.122,5.07-5.279,5.07h-6.082a1.379,1.379,0,1,1,0-2.758h6.082c2.194,0,2.521-1.449,2.521-2.313,0-1.035-.437-2.27-2.521-2.27h-10.53v9.785H217.1c4.863,0,7.766-2.7,7.766-7.224a5.588,5.588,0,0,0-3.314-5.46l-2.679-1.244,2.673-1.254a5.493,5.493,0,0,0,2.9-4.915c0-4.454-2.861-7.009-7.848-7.009H205.983v9.321h10.152c1.131,0,2.479-.358,2.479-2.061s-1.348-2.06-2.479-2.06h-5.7a1.379,1.379,0,1,1,0-2.758h5.7c3.133,0,5.237,1.936,5.237,4.818s-2.1,4.819-5.237,4.819H204.681c-.051,0-.1,0-.155,0H195.5v-26a1.379,1.379,0,1,1,2.758,0v23.242h4.962V278.557H216.6c6.443,0,10.606,3.834,10.606,9.767a8.24,8.24,0,0,1-2.6,6.09,8.313,8.313,0,0,1,3.02,6.783c0,6.064-4.131,9.982-10.524,9.982H203.225V298.636h-13.55V263.969h-6.892v49.67h49.653v-49.67h-35.57a1.379,1.379,0,0,1,0-2.758h38.328Z" transform="translate(0 0)"/>
    <g id="Group_955" data-name="Group 955" transform="translate(333.835 270.351)">
      <path id="Path_963" data-name="Path 963" d="M423.111,290.68H426.2s1.576.1,1.576-1.1c0-.984-.772-1.171-1.571-1.138l-3.1-.019a15.028,15.028,0,0,1,1.151-4.376,10.551,10.551,0,0,1,2.3-3.363,10.249,10.249,0,0,1,3.293-2.142,11.942,11.942,0,0,1,8.384,0,9.4,9.4,0,0,1,3.063,2,8.147,8.147,0,0,1,1.866,2.856,9.135,9.135,0,0,1,.623,3.316,8.473,8.473,0,0,1-.669,3.478,10.314,10.314,0,0,1-1.8,2.741,17.011,17.011,0,0,1-2.58,2.3q-1.451,1.06-3.017,2.119-2.072,1.428-3.8,2.81a10.559,10.559,0,0,0-2.7,3.133h12.446s1.284.038,1.284-1.133c0-1.15-1.284-1.125-1.284-1.125h-7.2c.794-.6,1.636-1.209,2.514-1.814q1.6-1.083,3.08-2.164a19.291,19.291,0,0,0,2.923-2.61,12.633,12.633,0,0,0,2.186-3.34,10.74,10.74,0,0,0,.865-4.4,11.429,11.429,0,0,0-.774-4.13,10.45,10.45,0,0,0-2.377-3.64,11.678,11.678,0,0,0-3.788-2.491,14.186,14.186,0,0,0-10.108-.007A12.5,12.5,0,0,0,425,279.06a12.82,12.82,0,0,0-2.8,4.072,17.342,17.342,0,0,0-1.328,5.031,2.258,2.258,0,0,0,2.244,2.517Z" transform="translate(-420.853 -275.522)"/>
      <path id="Path_964" data-name="Path 964" d="M443.893,309.349l.005.641v2.235H423.4v-3.962a12.057,12.057,0,0,1,1.52-3.455,17.491,17.491,0,0,1,2.327-2.88,25.97,25.97,0,0,1,2.786-2.418q1.475-1.105,2.857-2.073,1.059-.736,2.1-1.543t1.866-1.59a8.248,8.248,0,0,0,1.336-1.589,4.252,4.252,0,0,0,.588-1.941,4.115,4.115,0,0,0-1.394-3.356,4.594,4.594,0,0,0-3.248-1.221,4.941,4.941,0,0,0-3.831,1.59,5.919,5.919,0,0,0-1.236,2.021,1.045,1.045,0,0,0,.807,1.547c1.088.229,1.421-1.17,2.1-2.021a2.535,2.535,0,0,1,2.157-.878,2.363,2.363,0,0,1,1.71.616,2.187,2.187,0,0,1,.592,2.007,3.263,3.263,0,0,1-1.137,1.584c-.5.47-1.069.957-1.7,1.446-.675.525-1.348,1.02-2.007,1.478q-1.408.988-2.914,2.115a28.465,28.465,0,0,0-3.03,2.629,19.979,19.979,0,0,0-2.624,3.248,14.436,14.436,0,0,0-1.883,4.4v6.5h25.017v-5.307s.093-1.388-1.146-1.388C443.729,307.788,443.893,309.349,443.893,309.349Z" transform="translate(-420.957 -279.38)"/>
    </g>
    <g id="Group_956" data-name="Group 956" transform="translate(396.846 307.713)">
      <path id="Path_965" data-name="Path 965" d="M526.242,343.576a4.09,4.09,0,0,1-5.7,0c-1.065-1.065-1.035-2.382-1.035-4.2s-.03-3.136,1.035-4.2a4.092,4.092,0,0,1,5.7,0c1.065,1.065,1.05,2.382,1.05,4.2S527.307,342.512,526.242,343.576Zm-1.524-7.159a1.708,1.708,0,0,0-1.316-.562,1.743,1.743,0,0,0-1.332.562c-.4.444-.5.932-.5,2.958s.1,2.514.5,2.958a1.745,1.745,0,0,0,1.332.562,1.71,1.71,0,0,0,1.316-.562c.4-.444.518-.932.518-2.958S525.118,336.861,524.718,336.417Z" transform="translate(-519.512 -334.021)"/>
      <path id="Path_966" data-name="Path 966" d="M541.209,344.692l-4.171-6.464v6.464h-2.056V334.16h1.835l4.17,6.449V334.16h2.057v10.532Z" transform="translate(-525.101 -334.071)"/>
      <path id="Path_967" data-name="Path 967" d="M555.027,335.994v8.7h-2.056v-8.7H550.22V334.16h7.559v1.834Z" transform="translate(-530.608 -334.071)"/>
      <path id="Path_968" data-name="Path 968" d="M568.618,344.692,568,342.827h-3.743l-.635,1.864h-2.145L565.3,334.16h1.612l3.846,10.532Zm-2.456-7.426-1.331,3.831h2.618Z" transform="translate(-534.674 -334.071)"/>
      <path id="Path_969" data-name="Path 969" d="M583.646,344.692l-2.056-4.2h-1.479v4.2h-2.056V334.16h4.126a3.184,3.184,0,0,1,3.417,3.225,2.836,2.836,0,0,1-1.922,2.766l2.352,4.541Zm-1.6-8.7h-1.938v2.781h1.938a1.394,1.394,0,1,0,0-2.781Z" transform="translate(-540.665 -334.071)"/>
      <path id="Path_970" data-name="Path 970" d="M593.2,344.692V334.16h2.056v10.532Z" transform="translate(-546.138 -334.071)"/>
      <path id="Path_971" data-name="Path 971" d="M606.437,343.576a4.09,4.09,0,0,1-5.7,0c-1.065-1.065-1.035-2.382-1.035-4.2s-.029-3.136,1.035-4.2a4.092,4.092,0,0,1,5.7,0c1.065,1.065,1.051,2.382,1.051,4.2S607.5,342.512,606.437,343.576Zm-1.523-7.159a1.71,1.71,0,0,0-1.317-.562,1.741,1.741,0,0,0-1.331.562c-.4.444-.5.932-.5,2.958s.1,2.514.5,2.958a1.743,1.743,0,0,0,1.331.562,1.713,1.713,0,0,0,1.317-.562c.4-.444.517-.932.517-2.958S605.313,336.861,604.914,336.417Z" transform="translate(-548.489 -334.021)"/>
    </g>
  </g>
</svg>
