<svg xmlns="http://www.w3.org/2000/svg" width="28.943" height="28.944" viewBox="0 0 28.943 28.944">
  <g id="Facebook_1_" transform="translate(0 0)">
    <path id="Subtraction_5" data-name="Subtraction 5" d="M15.228,28.945H2.518A2.522,2.522,0,0,1,0,26.425V2.516A2.52,2.52,0,0,1,2.518,0H26.428a2.519,2.519,0,0,1,2.516,2.516V26.425a2.52,2.52,0,0,1-2.516,2.519H19.883v-11.2h3.776l.5-4.405H19.883V10.571c0-1.112.259-2.141,2.139-2.141h2.266V4.53c-.122,0-.35-.013-.659-.031l-.023,0C22.96,4.46,21.983,4.4,20.891,4.4a5.68,5.68,0,0,0-4.059,1.48,5.819,5.819,0,0,0-1.6,4.309v3.272H11.452v4.405h3.776V28.944Z" fill="#fff"/>
  </g>
</svg>
