<?xml version="1.0" encoding="utf-8"?>
<!-- Generator: Adobe Illustrator 23.0.4, SVG Export Plug-In . SVG Version: 6.00 Build 0)  -->
<svg version="1.1" id="Layer_1" xmlns="http://www.w3.org/2000/svg" xmlns:xlink="http://www.w3.org/1999/xlink" x="0px" y="0px"
	 viewBox="0 0 23.4 23.4" style="enable-background:new 0 0 23.4 23.4;" xml:space="preserve">
<style type="text/css">
	.st0{fill:#FFFFFF;}
</style>
<g>
	<path class="st0" d="M21.8,19.9L21.8,19.9l-5.2-5.1l0.2-0.4c2.6-4,1.5-9.3-2.5-12c-4-2.6-9.4-1.5-12,2.5c-1.3,1.9-1.7,4.2-1.2,6.5
		s1.8,4.2,3.7,5.5c2.9,1.9,6.6,1.9,9.5,0l0.4-0.2l0.3,0.3l4.9,4.9c0.5,0.5,1.4,0.5,1.9,0c0.3-0.3,0.4-0.6,0.4-1S22.1,20.2,21.8,19.9
		z M9.6,16.1c-3.6,0-6.5-2.9-6.5-6.5s2.9-6.5,6.5-6.5s6.5,2.9,6.5,6.5S13.2,16.1,9.6,16.1z"/>
</g>
</svg>
