<svg xmlns="http://www.w3.org/2000/svg" width="28.943" height="28.943" viewBox="0 0 28.943 28.943">
  <g id="Twitter_1_" transform="translate(0 0)">
    <path id="Subtraction_4" data-name="Subtraction 4" d="M26.428,28.944H2.516A2.52,2.52,0,0,1,0,26.425V2.516A2.519,2.519,0,0,1,2.516,0H26.428a2.519,2.519,0,0,1,2.516,2.516V26.425A2.52,2.52,0,0,1,26.428,28.944ZM4.782,21.393h0a11.79,11.79,0,0,0,6.669,1.887,12.511,12.511,0,0,0,5.271-1.113,11.664,11.664,0,0,0,3.868-2.883,12.743,12.743,0,0,0,3.194-8.337v-.5l.016-.015,0,0A18.267,18.267,0,0,0,25.8,8.179a5.787,5.787,0,0,1-2.518.628,3.965,3.965,0,0,0,1.889-2.39A7.3,7.3,0,0,1,22.4,7.423a4.107,4.107,0,0,0-3.145-1.385,4.245,4.245,0,0,0-4.278,4.28,2.788,2.788,0,0,0,.125,1.007A11.844,11.844,0,0,1,6.165,6.919,4.256,4.256,0,0,0,5.536,9.06,4.2,4.2,0,0,0,7.55,12.709a5.3,5.3,0,0,1-2.014-.5A4.341,4.341,0,0,0,9.06,16.483a3.455,3.455,0,0,1-1.133.128,1.582,1.582,0,0,1-.754-.128A4.2,4.2,0,0,0,11.2,19.5a9.134,9.134,0,0,1-5.411,1.889H4.782Z" fill="#fff"/>
  </g>
</svg>
