<svg xmlns="http://www.w3.org/2000/svg" width="44.338" height="44.336" viewBox="0 0 44.338 44.336">
  <g id="Group_909" data-name="Group 909" transform="translate(-147.277 -355.469)">
    <path id="Path_893" data-name="Path 893" d="M184.845,373.345a18.065,18.065,0,1,1-9.951-9.951l2.115-2.114a20.855,20.855,0,1,0,9.95,9.951Z" transform="translate(0 -1.158)" fill="#fcab11"/>
    <path id="Path_894" data-name="Path 894" d="M172.4,376.181a8.2,8.2,0,0,1,1.973.249l2.206-2.206a11.029,11.029,0,1,0,6,6.006l-2.206,2.206a8.22,8.22,0,1,1-7.976-6.255Z" transform="translate(-4.283 -5.441)" fill="#fcab11"/>
    <path id="Path_895" data-name="Path 895" d="M199.669,360.918c-.3-1.012-1.308-1.216-2.04-1.364a1.817,1.817,0,0,1-1.975-1.976c-.139-.684-.429-2.108-1.83-2.108a2.181,2.181,0,0,0-1.518.745l-7.513,7.513c-1.176,1.177-1.244,4.457-1.211,5.927l-7.134,7.134a2.055,2.055,0,0,0-.208-.021,2.2,2.2,0,1,0,2.2,2.2,2.03,2.03,0,0,0-.021-.208l7.091-7.091c1.256-.057,5.022-.307,5.972-1.254l7.512-7.512A1.946,1.946,0,0,0,199.669,360.918Zm-10.032,7.4a18.754,18.754,0,0,1-3.273.517,10.03,10.03,0,0,1,.437-3.175l6.4-6.4a3.9,3.9,0,0,0,2.748,2.747Z" transform="translate(-8.124)" fill="#fcab11"/>
  </g>
</svg>
