<?xml version="1.0" encoding="utf-8"?>
<!-- Generator: Adobe Illustrator 23.0.4, SVG Export Plug-In . SVG Version: 6.00 Build 0)  -->
<svg version="1.1" id="Layer_1" xmlns="http://www.w3.org/2000/svg" xmlns:xlink="http://www.w3.org/1999/xlink" x="0px" y="0px"
	 viewBox="0 0 44.3 44.3" style="enable-background:new 0 0 44.3 44.3;" xml:space="preserve">
<style type="text/css">
	.st0{fill:#FCAB11;}
</style>
<g>
	<path class="st0" d="M18,22.2c4.7,0,8.3-5.5,8.3-12.5C26.3,0.9,20.5,0,18,0S9.6,0.9,9.6,9.7C9.6,16.7,13.3,22.2,18,22.2z M12.5,9.7
		c0-4.6,1.8-6.9,5.5-6.9v0c3.6,0,5.5,2.3,5.5,6.9c0,5.1-2.6,9.6-5.5,9.6S12.5,14.8,12.5,9.7z"/>
	<path class="st0" d="M20.7,41.4l-11,0V36c0-0.8-0.6-1.4-1.4-1.4c0,0,0,0,0,0c-0.8,0-1.4,0.6-1.4,1.4l0,5.5l-4.1,0
		C2.9,37.4,3.6,30,5.6,27.9c0.2-0.2,0.4-0.3,0.7-0.3h0.8c2.5,0,5-0.4,6.6-3.4c0.2-0.3,0.2-0.7,0.1-1.1c-0.1-0.4-0.4-0.7-0.7-0.9
		c-0.3-0.2-0.7-0.2-1.1-0.1c-0.4,0.1-0.7,0.4-0.9,0.7c-1,1.8-2.2,1.9-4,1.9H6.3c-1,0-2,0.5-2.7,1.2C0.1,29.5,0,40.7,0,42.9
		c0,0.8,0.7,1.4,1.4,1.4h0l19.3,0c0.8,0,1.4-0.6,1.4-1.4S21.5,41.4,20.7,41.4z"/>
	<path class="st0" d="M29.4,35.6c0.3,0.3,0.6,0.4,1,0.4c0,0,0,0,0,0c0.4,0,0.7-0.2,1-0.4l5.5-5.5c0.3-0.3,0.4-0.6,0.4-1
		c0-0.4-0.1-0.7-0.4-1c-0.6-0.6-1.5-0.6-2,0l-4.4,4.4l-0.2,0l-1.7-1.7c-0.3-0.3-0.7-0.4-1-0.4c-0.4,0-0.7,0.2-1,0.4
		c-0.5,0.6-0.5,1.5,0,2L29.4,35.6z"/>
	<path class="st0" d="M31.8,19.3c-6.9,0-12.5,5.6-12.5,12.5s5.6,12.5,12.5,12.5h0c6.9,0,12.5-5.6,12.5-12.5
		C44.3,24.9,38.7,19.3,31.8,19.3z M31.8,22.2c5.3,0,9.6,4.3,9.6,9.6c0,5.3-4.3,9.6-9.6,9.6s-9.6-4.3-9.6-9.6
		C22.2,26.5,26.5,22.2,31.8,22.2z"/>
</g>
</svg>
