<svg xmlns="http://www.w3.org/2000/svg" width="45.507" height="40.025" viewBox="0 0 45.507 40.025">
  <g id="Group_893" data-name="Group 893" transform="translate(-456.257 -147.839)">
    <path id="Path_871" data-name="Path 871" d="M500.46,185.257H494.6V149.143a1.3,1.3,0,0,0-1.3-1.3H465.293a1.3,1.3,0,0,0-1.3,1.3v36.115h-6.429a1.3,1.3,0,0,0,0,2.607h42.9a1.3,1.3,0,0,0,0-2.607Zm-16.837,0h-8.652V179.4h8.652ZM466.6,150.446H492v34.811H486.23v-7.162a1.3,1.3,0,0,0-1.3-1.3H473.668a1.3,1.3,0,0,0-1.3,1.3v7.162H466.6Z" fill="#fcab11"/>
    <rect id="Rectangle_762" data-name="Rectangle 762" width="3.491" height="2.584" transform="translate(471.371 156.229)" fill="#fcab11"/>
    <rect id="Rectangle_763" data-name="Rectangle 763" width="3.491" height="2.584" transform="translate(477.48 156.229)" fill="#fcab11"/>
    <rect id="Rectangle_764" data-name="Rectangle 764" width="3.491" height="2.584" transform="translate(483.588 156.229)" fill="#fcab11"/>
    <rect id="Rectangle_765" data-name="Rectangle 765" width="3.491" height="2.583" transform="translate(471.371 162.245)" fill="#fcab11"/>
    <rect id="Rectangle_766" data-name="Rectangle 766" width="3.491" height="2.583" transform="translate(477.48 162.245)" fill="#fcab11"/>
    <rect id="Rectangle_767" data-name="Rectangle 767" width="3.491" height="2.583" transform="translate(471.371 168.261)" fill="#fcab11"/>
    <rect id="Rectangle_768" data-name="Rectangle 768" width="3.491" height="2.583" transform="translate(477.48 168.261)" fill="#fcab11"/>
    <rect id="Rectangle_769" data-name="Rectangle 769" width="3.49" height="2.583" transform="translate(483.588 168.261)" fill="#fcab11"/>
    <rect id="Rectangle_770" data-name="Rectangle 770" width="3.49" height="2.583" transform="translate(483.588 162.245)" fill="#fcab11"/>
  </g>
</svg>
