<?xml version="1.0" encoding="utf-8"?>
<!-- Generator: Adobe Illustrator 23.0.4, SVG Export Plug-In . SVG Version: 6.00 Build 0)  -->
<svg version="1.1" id="Layer_1" xmlns="http://www.w3.org/2000/svg" xmlns:xlink="http://www.w3.org/1999/xlink" x="0px" y="0px"
	 viewBox="0 0 47 45.8" style="enable-background:new 0 0 47 45.8;" xml:space="preserve">
<style type="text/css">
	.st0{fill:#FCAB11;}
</style>
<g>
	<path class="st0" d="M26.4,26.3c0.1-0.1,0.2-0.1,0.2-0.2c0.7-0.9,1.1-2,1-3V22c0-0.3,0-0.7,0-1c-0.1-1.1-0.7-2-1.6-2.7
		c-0.9-0.7-1.9-0.9-3-0.8c-1.1,0.1-2,0.7-2.7,1.6c-0.6,0.9-0.9,1.9-0.8,3l0,1c0,0.1,0,0.2,0,0.2c0,1.1,0.4,2.2,1.1,3
		c0,0,0.1,0,0.1,0.1c-1.7,0.8-3.2,2.1-3.2,3.4v3.1h2l0-3c0.1-0.6,2.3-2.1,4.1-2.1c1.9,0,4,1.5,4.1,2.1v3.1h2v-3.1
		C29.6,28.4,28.1,27,26.4,26.3z M21.9,20.2c0.3-0.4,0.8-0.7,1.4-0.8c0.1,0,0.2,0,0.3,0c0.5,0,0.9,0.1,1.3,0.4
		c0.4,0.3,0.7,0.8,0.8,1.4c0,0.2,0,0.4,0,0.6l0,0.1l0,1.3c0.1,0.6-0.1,1.2-0.5,1.6c-0.4,0.5-0.9,0.7-1.5,0.8l-0.1,0
		c-0.6,0-1.1-0.3-1.5-0.7c-0.4-0.4-0.6-1-0.6-1.6l0-1.4l0-0.1C21.4,21.2,21.5,20.7,21.9,20.2z"/>
	<path class="st0" d="M15.3,10.2c1.9,0,4,1.5,4.1,2.1c0,0,0,0,0,0h2c0-1.3-1.5-2.6-3.2-3.4c0.1-0.1,0.2-0.1,0.2-0.2
		c0.7-0.9,1.1-2,1-3V4.6c0-0.3,0-0.7,0-1c-0.1-1.1-0.7-2-1.6-2.7c-0.9-0.7-2-0.9-3-0.8c-1.1,0.1-2,0.7-2.7,1.6
		c-0.6,0.9-0.9,1.9-0.8,3l0,1c0,0.1,0,0.2,0,0.2c0,1.1,0.4,2.2,1.1,3c0,0,0.1,0,0.1,0.1c-1.7,0.8-3.2,2.1-3.2,3.4v3.1h2l0-3
		C11.3,11.7,13.5,10.2,15.3,10.2z M13.7,2.8C14,2.4,14.5,2.1,15,2c0.1,0,0.2,0,0.3,0c0.5,0,0.9,0.1,1.3,0.4c0.4,0.3,0.7,0.8,0.8,1.4
		c0,0.2,0,0.4,0,0.6l0,0.1l0,1.3c0.1,0.6-0.1,1.2-0.5,1.6S16,8.1,15.4,8.1l-0.1,0c-0.6,0-1.1-0.3-1.5-0.7c-0.4-0.4-0.6-1-0.6-1.6
		l0-1.4l0-0.1C13.2,3.8,13.3,3.2,13.7,2.8z"/>
	<path class="st0" d="M31.7,10.2c1.9,0,4,1.5,4.1,2.1v3.1h2v-3.1c0-1.3-1.5-2.6-3.3-3.4c0.8-0.8,1.3-1.9,1.2-3.1c0-0.1,0-0.1,0-0.1
		V4.6c0.3-2.2-1.3-4.2-3.5-4.5C30-0.3,28,1.3,27.7,3.5c0,0.3,0,0.7,0,1l0,1C27.5,6.8,28,8,28.8,8.9c-1.8,0.8-3.2,2.1-3.2,3.4l2,0
		C27.7,11.7,29.9,10.2,31.7,10.2z M29.6,3.8c0.1-1.1,1-1.8,2.1-1.8c0.1,0,0.2,0,0.3,0c0.6,0.1,1,0.4,1.4,0.8c0.3,0.4,0.5,1,0.4,1.6
		l0,0.1l0,1.3l0,0.1c0,1.2-0.9,2.2-2.1,2.3l-0.1,0c-1.2-0.1-2.1-1.2-2-2.5V4.5l0-0.1C29.6,4.2,29.6,4,29.6,3.8z"/>
	<path class="st0" d="M43.8,25.3c0.8-0.8,1.3-2,1.2-3.2v-1.1c0-0.3,0-0.7,0-1c-0.1-1.1-0.7-2-1.6-2.7c-0.9-0.7-1.9-0.9-3-0.8
		c-1.1,0.1-2,0.7-2.7,1.6c-0.6,0.9-0.9,1.9-0.8,3V22c0,0.1,0,0.1,0,0.2c0,1.2,0.4,2.3,1.2,3.1c-0.7,0.3-1.3,0.6-1.9,1.1l1.3,1.6
		c1-0.8,2.2-1.3,3.5-1.4c1.9,0,4,1.5,4.1,2.1v3.1h2v-3.1C47,27.3,45.6,26,43.8,25.3z M39.3,19.2c0.3-0.4,0.8-0.7,1.4-0.8
		c0.1,0,0.2,0,0.3,0c0.5,0,0.9,0.1,1.3,0.4c0.4,0.3,0.7,0.8,0.8,1.4c0,0.2,0,0.4,0,0.6l0,0.1l0,1.3c0.1,1.2-0.8,2.3-2,2.4l-0.1,0
		c-1.2-0.1-2.1-1.1-2.1-2.3l0-1.4l0-0.1C38.8,20.2,38.9,19.6,39.3,19.2z"/>
	<path class="st0" d="M9.1,25.2c0.8-0.8,1.2-1.9,1.1-3c0-0.1,0-0.1,0-0.1v-1.1c0.1-1.1-0.2-2.1-0.8-3c-0.7-0.9-1.6-1.4-2.7-1.6
		c-2.2-0.3-4.3,1.3-4.6,3.5c0,0.3,0,0.7,0,1l0,1c-0.1,1.3,0.4,2.5,1.2,3.3C1.5,26,0,27.3,0,28.6v3.1h2l0-3c0.1-0.6,2.3-2.1,4.1-2.1
		c1.3,0.1,2.5,0.5,3.5,1.4l1.3-1.6C10.3,25.9,9.6,25.6,9.1,25.2C9,25.2,9.1,25.2,9.1,25.2z M6.1,18.4c0.1,0,0.2,0,0.3,0
		c0.6,0.1,1,0.4,1.4,0.8c0.3,0.4,0.5,1,0.4,1.6l0,0.1l0,1.3l0,0.1c0,0.6-0.2,1.2-0.6,1.6c-0.4,0.4-0.9,0.7-1.5,0.7l-0.1,0
		c-1.2-0.1-2.1-1.2-2-2.5v-1.2l0-0.1c0-0.2,0-0.4,0-0.6C4.2,19.1,5.1,18.4,6.1,18.4z"/>
	<path class="st0" d="M34.3,31.5c1-1.8,1.5-3.8,1.5-5.9c0-6.8-5.5-12.3-12.3-12.3s-12.3,5.5-12.3,12.3c0,6.8,5.5,12.3,12.3,12.3
		c2,0,3.9-0.5,5.6-1.4l8.2,8.2l0.2,0.2l0,0c0.6,0.5,1.3,0.8,2,0.8c0.8,0,1.6-0.3,2.2-0.9l0.7-0.7l0.1-0.1l0-0.1
		c0.5-0.6,0.8-1.3,0.8-2c0-0.8-0.3-1.6-0.9-2.2L34.3,31.5z M13.3,25.6c0-5.7,4.6-10.3,10.3-10.3c5.7,0,10.3,4.6,10.3,10.3
		c0,5.7-4.6,10.3-10.3,10.3C17.9,35.8,13.3,31.2,13.3,25.6z M41,42.6l-0.7,0.7c-0.4,0.4-1,0.4-1.4,0.1l-0.1-0.1l-0.2-0.1l-7.8-7.8
		c0.8-0.6,1.6-1.4,2.2-2.2l7.9,7.9c0.2,0.2,0.3,0.5,0.3,0.7C41.4,42.1,41.2,42.4,41,42.6z"/>
</g>
</svg>
