<?xml version="1.0" encoding="utf-8"?>
<!-- Generator: Adobe Illustrator 23.0.4, SVG Export Plug-In . SVG Version: 6.00 Build 0)  -->
<svg version="1.1" id="Layer_1" xmlns="http://www.w3.org/2000/svg" xmlns:xlink="http://www.w3.org/1999/xlink" x="0px" y="0px"
	 viewBox="0 0 42.2 48.6" style="enable-background:new 0 0 42.2 48.6;" xml:space="preserve">
<style type="text/css">
	.st0{fill:#FCAB11;}
</style>
<g>
	<polygon class="st0" points="6.1,17.8 9.8,30.9 0,33.7 0.7,36.1 10.5,33.3 14.9,48.6 17.3,47.9 8.5,17.2 	"/>
	<polygon class="st0" points="22,21.5 21.3,19.1 14.5,21.1 13,15.8 10.6,16.5 12.8,24.3 	"/>
	<polygon class="st0" points="42.2,32.5 41.5,30.1 19,36.6 16.5,28.1 24.3,25.8 23.5,23.4 13.5,26.4 19.4,47.2 21.8,46.5 19.7,39 
		34.7,34.7 36.1,39.6 38.5,38.9 37.1,34 	"/>
	<path class="st0" d="M29.4,30c0.4,0,0.8-0.2,1.1-0.6c0.9-1.5,8.7-14.7,8.7-19.6c0,0,0,0,0,0c-0.1-5.3-4.4-9.6-9.6-9.6
		c0,0-0.1,0-0.1,0c-5.3,0-9.7,4.3-9.7,9.6c0,4.9,7.8,18.1,8.7,19.6C28.6,29.7,29,30,29.4,30z M29.4,2.6C29.4,2.6,29.5,2.6,29.4,2.6
		c4,0,7.2,3.3,7.2,7.2c0,3.1-4.5,11.7-7.2,16.5c-2.7-4.8-7.2-13.4-7.2-16.5C22.2,5.8,25.5,2.6,29.4,2.6z"/>
	<path class="st0" d="M34.3,9.7L34.3,9.7c0-2.7-2.2-4.9-4.9-4.9c-2.7,0-4.9,2.2-4.9,4.9s2.2,4.9,4.9,4.9S34.3,12.4,34.3,9.7z
		 M29.4,12.1c-1.3,0-2.4-1.1-2.4-2.4s1.1-2.4,2.4-2.4c1.3,0,2.4,1.1,2.4,2.4C31.8,11,30.7,12.1,29.4,12.1z"/>
</g>
</svg>
