<svg xmlns="http://www.w3.org/2000/svg" width="40.026" height="40.025" viewBox="0 0 40.026 40.025">
  <g id="Group_908" data-name="Group 908" transform="translate(-205 -205)">
    <g id="Group_901" data-name="Group 901" transform="translate(205 205)">
      <g id="Group_900" data-name="Group 900">
        <path id="Path_892" data-name="Path 892" d="M243.775,216.257a1.25,1.25,0,0,0-1.251,1.251v25.016h-8.756v-5a1.251,1.251,0,1,0-2.5,0v5H218.759v-5a1.251,1.251,0,1,0-2.5,0v5H207.5V232.518h10.006a1.251,1.251,0,1,0,0-2.5H207.5V207.5H220.01v10.006a1.25,1.25,0,0,0,1.251,1.251h5a1.251,1.251,0,0,0,0-2.5h-3.752V207.5h8.756v22.514h-7.5a1.251,1.251,0,1,0,0,2.5h13.759a1.251,1.251,0,0,0,0-2.5h-3.752V218.759h3.752a1.251,1.251,0,0,0,0-2.5h-3.752V206.251A1.25,1.25,0,0,0,232.518,205H206.251A1.25,1.25,0,0,0,205,206.251v37.524a1.25,1.25,0,0,0,1.251,1.251h37.524a1.25,1.25,0,0,0,1.251-1.251V217.508A1.25,1.25,0,0,0,243.775,216.257Z" transform="translate(-205 -205)" fill="#fcab11"/>
      </g>
    </g>
    <g id="Group_903" data-name="Group 903" transform="translate(210.003 225.013)">
      <g id="Group_902" data-name="Group 902">
        <rect id="Rectangle_771" data-name="Rectangle 771" width="2.502" height="2.502" fill="#fcab11"/>
      </g>
    </g>
    <g id="Group_905" data-name="Group 905" transform="translate(210.003 220.009)">
      <g id="Group_904" data-name="Group 904">
        <rect id="Rectangle_772" data-name="Rectangle 772" width="2.502" height="2.502" fill="#fcab11"/>
      </g>
    </g>
    <g id="Group_907" data-name="Group 907" transform="translate(215.007 225.013)">
      <g id="Group_906" data-name="Group 906">
        <rect id="Rectangle_773" data-name="Rectangle 773" width="2.502" height="2.502" fill="#fcab11"/>
      </g>
    </g>
  </g>
</svg>
