<?xml version="1.0" encoding="utf-8"?>
<!-- Generator: Adobe Illustrator 23.0.4, SVG Export Plug-In . SVG Version: 6.00 Build 0)  -->
<svg version="1.1" id="Layer_1" xmlns="http://www.w3.org/2000/svg" xmlns:xlink="http://www.w3.org/1999/xlink" x="0px" y="0px"
	 viewBox="0 0 50.2 50.2" style="enable-background:new 0 0 50.2 50.2;" xml:space="preserve">
<style type="text/css">
	.st0{fill:#FCAB11;}
</style>
<g>
	<path class="st0" d="M23.3,41.4H2.6c-0.1,0-0.2-0.1-0.2-0.2V8.1c0-0.1,0.1-0.2,0.2-0.2h2.8c0.1,0,0.2,0.1,0.2,0.2v1.4
		c0,0.6,0.5,1.2,1.2,1.2H26c0.6,0,1.2-0.5,1.2-1.2V8.1c0-0.1,0.1-0.2,0.2-0.2h2.8c0.1,0,0.2,0.1,0.2,0.2v11c0,0.6,0.5,1.2,1.2,1.2
		c0,0,0,0,0,0c0.3,0,0.6-0.1,0.8-0.3c0.2-0.2,0.3-0.5,0.3-0.8v-11c0-1.4-1.1-2.6-2.6-2.6h-2.8c-0.1,0-0.2-0.1-0.2-0.2V3.9
		c0-0.6-0.5-1.2-1.2-1.2h-4.9c-0.1,0-0.1,0-0.2-0.1c-0.5-0.8-1.1-1.5-2-2c-2.5-1.4-5.8-0.6-7.2,2c0,0.1-0.1,0.1-0.2,0.1h0H6.7
		C6,2.8,5.5,3.3,5.5,3.9v1.4c0,0.1-0.1,0.2-0.2,0.2H2.6C1.1,5.5,0,6.7,0,8.1v33.1c0,1.4,1.1,2.6,2.6,2.6h20.7c0.6,0,1.2-0.5,1.2-1.2
		S23.9,41.4,23.3,41.4z M7.9,5.3c0-0.1,0.1-0.2,0.2-0.2h0h4.4c0.5,0,0.9-0.3,1.1-0.8c0.3-0.9,1-1.5,1.8-1.8c1.5-0.5,3.2,0.3,3.7,1.8
		c0.2,0.5,0.6,0.8,1.1,0.8h4.4c0.1,0,0.2,0.1,0.2,0.2v2.8c0,0.1-0.1,0.2-0.2,0.2H8.1C8,8.3,7.9,8.2,7.9,8.1V5.3z"/>
	<path class="st0" d="M25.8,17.7c0-0.6-0.5-1.2-1.2-1.2H8.1c-0.6,0-1.2,0.5-1.2,1.2s0.5,1.2,1.2,1.2h16.6
		C25.3,18.9,25.8,18.4,25.8,17.7z"/>
	<path class="st0" d="M17.7,22.1H8.1c-0.6,0-1.2,0.5-1.2,1.2s0.5,1.2,1.2,1.2h9.7c0.6,0,1.2-0.5,1.2-1.2S18.4,22.1,17.7,22.1z"/>
	<path class="st0" d="M17.7,27.6H8.1c-0.6,0-1.2,0.5-1.2,1.2c0,0.6,0.5,1.2,1.2,1.2h9.7c0.6,0,1.2-0.5,1.2-1.2
		C18.9,28.1,18.4,27.6,17.7,27.6z"/>
	<path class="st0" d="M17.7,33.1H8.1c-0.6,0-1.2,0.5-1.2,1.2s0.5,1.2,1.2,1.2h9.7c0.6,0,1.2-0.5,1.2-1.2S18.4,33.1,17.7,33.1z"/>
	<circle class="st0" cx="16.3" cy="4.9" r="0.9"/>
	<path class="st0" d="M49.3,44.3l-6.8-6.8c0.8-1.5,1.2-3.2,1.2-5c0-6-4.9-10.8-10.8-10.8s-10.8,4.9-10.8,10.8
		c0,6,4.9,10.8,10.8,10.8c1.7,0,3.3-0.4,4.7-1.1l6.8,6.9c0.6,0.6,1.3,0.9,2.1,0.9s1.5-0.3,2.1-0.9l0.6-0.6c0.6-0.6,0.9-1.3,0.9-2.1
		C50.2,45.6,49.9,44.8,49.3,44.3z M32.9,40.9c-4.6,0-8.3-3.7-8.3-8.3s3.7-8.3,8.3-8.3s8.3,3.7,8.3,8.3S37.5,40.9,32.9,40.9z
		 M47.5,46.7l-0.6,0.6c-0.2,0.2-0.5,0.2-0.7,0l-6.5-6.5c0.5-0.4,0.9-0.8,1.3-1.3l6.4,6.4c0.1,0.1,0.1,0.3,0.1,0.3
		S47.7,46.6,47.5,46.7z"/>
</g>
</svg>
