<?xml version="1.0" encoding="utf-8"?>
<!-- Generator: Adobe Illustrator 23.0.4, SVG Export Plug-In . SVG Version: 6.00 Build 0)  -->
<svg version="1.1" id="Layer_1" xmlns="http://www.w3.org/2000/svg" xmlns:xlink="http://www.w3.org/1999/xlink" x="0px" y="0px"
	 viewBox="0 0 38.7 47.8" style="enable-background:new 0 0 38.7 47.8;" xml:space="preserve">
<style type="text/css">
	.st0{fill:#FCAB11;}
</style>
<g>
	<path class="st0" d="M36.5,23c1-1,2.1-2.1,2.1-3.7c0-1.5-1.1-2.7-2.2-3.7c-0.6-0.5-1-1-1.3-1.7c-0.1-0.8-0.1-1.6,0.1-2.3
		c0.2-1.4,0.5-3-0.3-4.2c-0.9-1.2-2.4-1.5-3.8-1.6c-0.7,0-1.4-0.2-2.1-0.5c-0.5-0.5-0.9-1.2-1.1-1.9c-0.6-1.4-1.3-2.8-2.7-3.3
		C25,0,24.7,0,24.4,0c0,0,0,0,0,0c-1.1,0.1-2.2,0.5-3.1,1.1c-1.1,1.1-2.9,1.1-4.1,0c-0.9-0.6-2-1-3.1-1.1c0,0,0,0,0,0
		c-0.3,0-0.6,0-0.9,0.1c-1.4,0.5-2.1,1.9-2.7,3.3C10.4,4.1,10,4.8,9.5,5.3C8.9,5.6,8.2,5.8,7.4,5.8l0,0C6.1,6,4.5,6.3,3.7,7.5
		c-0.8,1.2-0.6,2.7-0.3,4.2c0.2,0.8,0.3,1.5,0.1,2.3c-0.3,0.7-0.8,1.2-1.4,1.7c-1,1-2.1,2.1-2.1,3.7C0,20.9,1.1,22,2.2,23
		c0.6,0.5,1,1,1.3,1.7c0.1,0.8,0.1,1.6-0.1,2.3c-0.3,1.5-0.5,3,0.3,4.2c0.8,1,2.1,1.5,3.3,1.6c0.1,0,0.2,0.1,0.3,0.2
		c0.1,0.1,0.1,0.2,0,0.3l-4.2,8.3c-0.2,0.4-0.1,0.9,0.1,1.2c0.3,0.3,0.7,0.5,1.2,0.4l4.9-1.2c0.2,0,0.3,0,0.4,0.2l2.5,5
		c0.1,0.2,0.3,0.4,0.5,0.5c0.3,0.1,0.6,0.2,0.9,0.1c0.3-0.1,0.5-0.3,0.7-0.6L19.4,37c0.1-0.2,0.3-0.2,0.4-0.2
		c0.5,0.2,1.1,0.5,1.6,0.8c0.9,0.6,2,1,3.1,1.1c0.3,0,0.6,0,0.9-0.1c1.4-0.5,2-1.9,2.7-3.3c0.2-0.4,0.4-0.8,0.6-1.1
		c0.1-0.1,0.2-0.2,0.3-0.2c0.1,0,0.3,0.1,0.3,0.2l2.8,5.5c0,0.1,0,0.1,0,0.2c0,0.1,0,0.2-0.1,0.3c-0.1,0.1-0.2,0.1-0.4,0.1l-2.9-0.7
		c-0.1,0-0.2,0-0.3,0c-0.4,0-0.8,0.2-1,0.6l-1.7,3.4c-0.1,0.1-0.2,0.2-0.3,0.2c-0.1,0-0.3-0.1-0.3-0.2l-0.9-1.8
		c-0.3-0.5-0.9-0.8-1.5-0.5c-0.3,0.1-0.5,0.4-0.6,0.7s-0.1,0.6,0.1,0.9l2.3,4.5c0.2,0.4,0.6,0.6,1,0.6c0,0,0,0,0,0l0,0
		c0.4,0,0.8-0.3,1-0.6l2.5-5c0.1-0.2,0.3-0.2,0.4-0.2l4.9,1.2c0.3,0.1,0.5,0,0.8-0.1c0.3-0.1,0.5-0.4,0.6-0.7
		c0.1-0.3,0.1-0.6-0.1-0.9l-4.1-8.3c-0.1-0.1-0.1-0.2,0-0.3c0.1-0.1,0.2-0.2,0.3-0.2c1.3,0,2.5-0.6,3.4-1.6c0.8-1.2,0.6-2.7,0.3-4.2
		c-0.2-0.8-0.2-1.5-0.1-2.3C35.5,24,35.9,23.5,36.5,23z M33,27.4c0.2,1.3,0.3,2.1,0.1,2.5c-0.2,0.4-0.9,0.5-2.2,0.7
		c-1.1,0.1-2.2,0.4-3.2,1c-0.8,0.8-1.4,1.7-1.8,2.8c-0.6,1.4-1,1.9-1.3,2c0,0-0.1,0-0.1,0c-0.7-0.1-1.3-0.4-1.9-0.8
		c-0.9-0.8-2.1-1.2-3.2-1.2c-1.1,0-2.2,0.4-3.2,1.2l-0.1,0.1c-0.5,0.4-1.2,0.6-1.8,0.8c-0.1,0-0.1,0-0.2,0c-0.4-0.1-0.8-0.8-1.3-2
		c-0.4-1-1-2-1.8-2.8c-0.9-0.6-2-0.9-3.1-1c-1.4-0.2-2-0.3-2.2-0.7c-0.3-0.4-0.2-1.1,0.1-2.5c0.3-1.1,0.3-2.3,0.1-3.4
		c-0.4-1-1.1-1.9-1.9-2.6c-0.8-0.8-1.5-1.5-1.5-2c0-0.5,0.6-1.2,1.5-2c0.8-0.7,1.5-1.6,1.9-2.6c0.2-1.1,0.2-2.3-0.1-3.4
		C5.4,9.9,5.3,9.2,5.6,8.8c0.2-0.4,0.9-0.5,2.2-0.7c1.1-0.1,2.2-0.4,3.2-1c0.8-0.8,1.4-1.7,1.8-2.8c0.6-1.2,0.9-1.9,1.3-2
		c0,0,0,0,0,0c0,0,0.1,0,0.1,0c0.7,0.1,1.3,0.4,1.9,0.8c1.9,1.6,4.5,1.6,6.4,0c0.6-0.4,1.2-0.7,1.9-0.8c0.1,0,0.1,0,0.2,0
		c0.4,0.1,0.8,0.8,1.3,2c0.4,1.1,1,2,1.8,2.8c0.9,0.6,2,0.9,3.1,1c1.3,0.2,2,0.3,2.2,0.7c0.3,0.4,0.2,1.1-0.1,2.5
		c-0.3,1.1-0.3,2.3-0.1,3.4c0.4,1,1.1,1.9,1.9,2.6c0.9,0.8,1.5,1.5,1.5,2c0,0.5-0.6,1.2-1.5,2C34.1,22.1,33.4,23,33,24
		C32.7,25.1,32.8,26.3,33,27.4z M6.7,39.6l2.8-5.5c0.1-0.1,0.2-0.2,0.3-0.2c0.1,0,0.3,0.1,0.3,0.2c0.2,0.4,0.4,0.8,0.6,1.1
		c0.6,1.4,1.3,2.8,2.7,3.3c0.3,0.1,0.6,0.1,0.9,0.1c0.4,0,0.8-0.1,1.1-0.2c0.1,0,0.2,0,0.3,0c0.1,0,0.2,0.1,0.2,0.2
		c0,0.1,0,0.2,0,0.3l-2.2,4.4c-0.1,0.1-0.2,0.2-0.3,0.2c-0.1,0-0.3-0.1-0.3-0.2L11.3,40c-0.2-0.4-0.6-0.6-1-0.6h0
		c-0.1,0-0.2,0-0.3,0l-2.9,0.7c-0.1,0-0.2,0-0.3,0C6.7,40,6.6,39.8,6.7,39.6z"/>
	<path class="st0" d="M19.3,7.6C19.3,7.6,19.3,7.6,19.3,7.6c-3.1,0-6.1,1.2-8.3,3.4c-2.2,2.2-3.4,5.2-3.4,8.3
		c0,6.5,5.3,11.8,11.8,11.8c6.5,0,11.7-5.3,11.8-11.8C31.1,12.9,25.8,7.6,19.3,7.6z M19.3,9.9c5.2,0,9.5,4.3,9.5,9.5
		c0,5.2-4.2,9.5-9.5,9.5c-5.2,0-9.5-4.2-9.5-9.5C9.9,14.1,14.1,9.9,19.3,9.9z"/>
	<path class="st0" d="M17,23.2c0.2,0.2,0.5,0.3,0.8,0.3c0,0,0,0,0,0c0.3,0,0.6-0.1,0.8-0.3l6.1-6.1c0.4-0.4,0.4-1.2,0-1.6
		c-0.4-0.4-1.2-0.4-1.6,0l-5,5c-0.1,0.1-0.4,0.1-0.5,0l-2-2c-0.4-0.4-1.1-0.4-1.6,0c-0.5,0.4-0.5,1.2,0,1.6L17,23.2z"/>
</g>
</svg>
