<svg xmlns="http://www.w3.org/2000/svg" width="159.945" height="88.933" viewBox="0 0 159.945 88.933">
  <g id="Group_912" data-name="Group 912" transform="translate(-155.805 -194.954)">
    <path id="Path_896" data-name="Path 896" d="M304.967,249.181V212.532l-26.1-17.578-26.99,17.091v37.136Zm-23.551-5.4,8.781-5.589,8.779,5.589ZM299.3,237.34c-4.246-3.211-9-6.056-9.007-6.05l-19.97,12.494H258.4l31.551-19.764,9.348,6.036Zm-41.766-21.614,21.476-13.561,5.761,3.794L257.537,223.3Zm0,14.606L289.9,209.573l9.407,6.352V223.1l-9.225-6.217-32.541,20.9Z" transform="translate(-42.002 0)" fill="#fff"/>
    <path id="Path_897" data-name="Path 897" d="M176.942,322l-3.2,10.937L170.421,322h-3.5l-3.578,10.937L160.4,322H155.8l5.05,16.884h4.466l3.248-9.795,3.07,9.795h4.492L181.535,322Z" transform="translate(0 -55.545)" fill="#fff"/>
    <path id="Path_898" data-name="Path 898" d="M216.534,324.059a10.122,10.122,0,0,0-13.347,0,8.113,8.113,0,0,0-1.991,2.918,9.116,9.116,0,0,0-.673,3.425,8.425,8.425,0,0,0,2.664,6.319,10.122,10.122,0,0,0,13.347,0A8.421,8.421,0,0,0,219.2,330.4a9.115,9.115,0,0,0-.672-3.425A8.123,8.123,0,0,0,216.534,324.059Zm-3.273,9.592a4.6,4.6,0,0,1-3.4,1.319,4.746,4.746,0,0,1-3.426-1.345,4.2,4.2,0,0,1-1.345-3.147,4.46,4.46,0,0,1,1.345-3.323,4.638,4.638,0,0,1,3.426-1.346,4.772,4.772,0,0,1,3.4,1.346,4.329,4.329,0,0,1,1.37,3.247A4.439,4.439,0,0,1,213.261,333.651Z" transform="translate(-19.551 -55.347)" fill="#fff"/>
    <path id="Path_899" data-name="Path 899" d="M252.325,324.059a10.122,10.122,0,0,0-13.347,0,8.115,8.115,0,0,0-1.992,2.918,9.116,9.116,0,0,0-.673,3.425,8.421,8.421,0,0,0,2.664,6.319,10.122,10.122,0,0,0,13.347,0,8.421,8.421,0,0,0,2.664-6.319,9.127,9.127,0,0,0-.673-3.425A8.121,8.121,0,0,0,252.325,324.059Zm-3.273,9.592a4.605,4.605,0,0,1-3.4,1.319,4.746,4.746,0,0,1-3.426-1.345,4.2,4.2,0,0,1-1.345-3.147,4.461,4.461,0,0,1,1.345-3.323,4.639,4.639,0,0,1,3.426-1.346,4.774,4.774,0,0,1,3.4,1.346,4.331,4.331,0,0,1,1.37,3.247A4.44,4.44,0,0,1,249.051,333.651Z" transform="translate(-35.198 -55.347)" fill="#fff"/>
    <path id="Path_900" data-name="Path 900" d="M278.327,322H273v16.884h5.708a9.234,9.234,0,0,0,3.7-.639,8.8,8.8,0,0,0,2.791-1.8,7.879,7.879,0,0,0,2.207-5.842,8.253,8.253,0,0,0-2.36-6.218A9.293,9.293,0,0,0,278.327,322Zm3.223,12.2a5.121,5.121,0,0,1-3.7,1.311H277.5V325.94h.521a4.992,4.992,0,0,1,3.5,1.023,4.919,4.919,0,0,1,1.319,3.73A4.656,4.656,0,0,1,281.55,334.2Z" transform="translate(-51.238 -55.545)" fill="#fff"/>
    <path id="Path_901" data-name="Path 901" d="M313.256,328.191H306.5V322H302v16.884h4.5V332.13h6.754v6.754h4.5V322h-4.5Z" transform="translate(-63.917 -55.545)" fill="#fff"/>
    <path id="Path_902" data-name="Path 902" d="M349,324.059a10.121,10.121,0,0,0-13.347,0,8.108,8.108,0,0,0-1.992,2.918,9.116,9.116,0,0,0-.673,3.425,8.42,8.42,0,0,0,2.665,6.319,10.121,10.121,0,0,0,13.347,0,8.419,8.419,0,0,0,2.665-6.319,9.138,9.138,0,0,0-.673-3.425A8.114,8.114,0,0,0,349,324.059Zm-3.273,9.592a4.606,4.606,0,0,1-3.4,1.319,4.744,4.744,0,0,1-3.426-1.345,4.2,4.2,0,0,1-1.345-3.147,4.458,4.458,0,0,1,1.345-3.323,4.639,4.639,0,0,1,3.426-1.346,4.775,4.775,0,0,1,3.4,1.346,4.331,4.331,0,0,1,1.37,3.247A4.44,4.44,0,0,1,345.731,333.651Z" transform="translate(-77.466 -55.347)" fill="#fff"/>
    <path id="Path_903" data-name="Path 903" d="M405.162,328.549l-1.345-.406a3.047,3.047,0,0,1-1.471-.761,1.234,1.234,0,0,1-.228-.761,1.291,1.291,0,0,1,.431-.913A2.019,2.019,0,0,1,404,325.2a4.668,4.668,0,0,1,2.892,1.142l1.751-3.425a11.16,11.16,0,0,0-5.227-1.37,5.861,5.861,0,0,0-4.339,1.6,5.525,5.525,0,0,0-1.548,4.086,4.249,4.249,0,0,0,.964,2.994,5.3,5.3,0,0,0,2.436,1.369l1.141.356a7.346,7.346,0,0,1,2.182.888,1.275,1.275,0,0,1,.482,1.015,1.445,1.445,0,0,1-.432,1.065,2.2,2.2,0,0,1-1.7.584,5.6,5.6,0,0,1-3.883-1.726l-1.878,3.553a10.649,10.649,0,0,0,2.563,1.343,9.564,9.564,0,0,0,3.324.559,6.771,6.771,0,0,0,5-1.726,5.76,5.76,0,0,0,1.6-4.263,4.242,4.242,0,0,0-1.091-3.019A6.942,6.942,0,0,0,405.162,328.549Z" transform="translate(-105.38 -55.347)" fill="#fff"/>
    <path id="Path_904" data-name="Path 904" d="M432.568,325.94V322H423v16.884h9.568v-3.94H426.94V332.13H432v-3.377H426.94V325.94Z" transform="translate(-116.818 -55.545)" fill="#fff"/>
    <path id="Path_905" data-name="Path 905" d="M379.13,322v10.148a3.711,3.711,0,0,1-1.052,2.614,2.855,2.855,0,0,1-3.5,0,3.756,3.756,0,0,1-1.079-2.614V322H369v9.843a8.469,8.469,0,0,0,1.759,5.558,6.747,6.747,0,0,0,5.3,2.029c.064,0,.125-.006.189-.008s.124.008.189.008a6.9,6.9,0,0,0,5.368-2.029,8.472,8.472,0,0,0,1.827-5.558V322Z" transform="translate(-93.209 -55.545)" fill="#fff"/>
  </g>
</svg>
