<svg xmlns="http://www.w3.org/2000/svg" width="129.949" height="82.795" viewBox="0 0 129.949 82.795">
  <g id="Group_919" data-name="Group 919" transform="translate(-236.943 -68.523)">
    <path id="Path_921" data-name="Path 921" d="M361.883,90.238a10.17,10.17,0,0,0-10.9-2.27c-4.63,1.824-4.946,6.185-11.189,6.185a9.379,9.379,0,0,1-5.364-1.679,13.892,13.892,0,0,1-1.387-1.14,14.707,14.707,0,0,0-1.144-.961,8.753,8.753,0,0,0-8.581-.987c-4.583,1.957-4.587,7.28-11.25,7.28-6.137,0-6.388-4.406-10.27-6.113a7.524,7.524,0,0,0-6.111.033c-3.536,1.6-3.475,4.773-8.216,6.338a10.546,10.546,0,0,1-2.394.491,10.582,10.582,0,0,1,2.682.591c4.55,1.648,4.462,4.673,7.929,6.245a7.526,7.526,0,0,0,6.295-.05c3.8-1.8,3.94-6.069,10.085-6.069,7.305,0,6.627,6.06,12.262,7.679a8.7,8.7,0,0,0,7.716-1.459c.385-.293.673-.559.97-.831.238-.219.48-.444.777-.689a9.4,9.4,0,0,1,9.283-1.571c3.576,1.334,4.221,4.106,7.8,5.564a10.155,10.155,0,0,0,11.007-16.587Z" fill="#fff"/>
    <path id="Path_922" data-name="Path 922" d="M243.835,92.525a4.892,4.892,0,1,0,4.892,4.894A4.893,4.893,0,0,0,243.835,92.525Z" fill="#fff"/>
    <path id="Path_923" data-name="Path 923" d="M276.038,93.625a9.331,9.331,0,0,0-1.283-1.293,6.451,6.451,0,0,0-1.856-1,6.435,6.435,0,1,0,1.953,11.1,10.447,10.447,0,0,0,1.248-1.273,10.251,10.251,0,0,1,7.134-3.74A10.39,10.39,0,0,1,276.038,93.625Z" fill="#fff"/>
    <path id="Path_924" data-name="Path 924" d="M314.995,71.844a7.527,7.527,0,0,0-6.11-.034c-3.881,1.708-4.131,6.112-10.27,6.112-6.663,0-6.668-5.321-11.249-7.278a8.717,8.717,0,0,0-8.581.987,14.1,14.1,0,0,0-1.144.96,13.374,13.374,0,0,1-1.387,1.139,9.4,9.4,0,0,1-5.364,1.68c-6.244,0-6.559-4.36-11.19-6.185a10.154,10.154,0,1,0,.108,18.857c3.578-1.457,4.223-4.228,7.8-5.562a9.4,9.4,0,0,1,9.284,1.571c.3.244.54.468.777.686.3.274.585.54.969.834a8.754,8.754,0,0,0,7.715,1.457c5.636-1.618,4.959-7.68,12.263-7.68,6.145,0,6.287,4.273,10.086,6.069a7.522,7.522,0,0,0,6.293.052c3.469-1.572,3.381-4.6,7.931-6.245a10.545,10.545,0,0,1,2.68-.592,10.463,10.463,0,0,1-2.392-.49C318.47,76.617,318.534,73.447,314.995,71.844Z" fill="#fff"/>
    <path id="Path_925" data-name="Path 925" d="M344.411,74.128a6.42,6.42,0,0,0-8.483-.539,9.176,9.176,0,0,0-1.283,1.294,10.384,10.384,0,0,1-7.2,3.789,10.25,10.25,0,0,1,7.133,3.741,10.6,10.6,0,0,0,1.249,1.272,6.431,6.431,0,0,0,8.581-9.557Z" fill="#fff"/>
    <g id="Group_917" data-name="Group 917">
      <path id="Path_926" data-name="Path 926" d="M260.12,144.9l-1.483,3.725c-.028.061-.063.061-.089,0l-1.659-3.725a.081.081,0,0,0-.079-.052h-.527c-.052,0-.079.026-.052.079l2.062,4.549a.1.1,0,0,1,0,.087c-.28.694-.57,1.187-1.071,1.187a.936.936,0,0,1-.536-.2c-.052-.035-.069-.017-.087.026l-.088.327a.078.078,0,0,0,.017.1,1.111,1.111,0,0,0,.791.325c.825,0,1.177-.719,1.519-1.581l1.95-4.812c.017-.043,0-.079-.054-.079H260.2a.088.088,0,0,0-.079.052Z" fill="#fff"/>
      <path id="Path_927" data-name="Path 927" d="M265.165,149.5a2.34,2.34,0,1,0-2.371-2.343,2.3,2.3,0,0,0,2.371,2.343Zm0-4.135a1.8,1.8,0,1,1-1.721,1.792,1.694,1.694,0,0,1,1.721-1.792Z" fill="#fff"/>
      <path id="Path_928" data-name="Path 928" d="M273.838,144.846h-.5a.064.064,0,0,0-.07.071v2.995a1.715,1.715,0,0,1-1.554,1.043c-.852,0-1.362-.491-1.362-1.658v-2.38a.064.064,0,0,0-.07-.071h-.5a.064.064,0,0,0-.07.071v2.467c0,1.633.852,2.116,1.818,2.116a2.242,2.242,0,0,0,1.66-.772c.044-.053.079-.036.079.026v.651a.064.064,0,0,0,.07.069h.5a.064.064,0,0,0,.071-.069v-4.488a.065.065,0,0,0-.071-.071Z" fill="#fff"/>
      <path id="Path_929" data-name="Path 929" d="M278.991,145.03a1.737,1.737,0,0,0-.834-.21,1.663,1.663,0,0,0-1.318.667c-.035.053-.078.036-.078-.027v-.543a.065.065,0,0,0-.072-.071h-.508a.064.064,0,0,0-.07.071V149.4a.064.064,0,0,0,.07.069h.508a.065.065,0,0,0,.072-.069v-2.574a1.279,1.279,0,0,1,1.325-1.371,1.339,1.339,0,0,1,.746.194.058.058,0,0,0,.089-.045l.114-.482a.084.084,0,0,0-.044-.1Z" fill="#fff"/>
      <path id="Path_930" data-name="Path 930" d="M287.766,149.255l-.062-.316c-.008-.054-.035-.054-.087-.036a1.174,1.174,0,0,1-.4.052c-.464,0-.482-.43-.482-1.386V145.46a.064.064,0,0,1,.07-.069h.853a.064.064,0,0,0,.069-.071v-.4a.064.064,0,0,0-.069-.071h-.853a.065.065,0,0,1-.07-.07v-1.062c0-.044-.026-.08-.071-.071l-.508.062a.069.069,0,0,0-.062.078v.993a.064.064,0,0,1-.07.07h-.456a.065.065,0,0,0-.071.071v.4a.065.065,0,0,0,.071.071h.456a.064.064,0,0,1,.07.069v2.109c0,1.115-.009,1.931.905,1.931a1.505,1.505,0,0,0,.737-.158.077.077,0,0,0,.027-.087Z" fill="#fff"/>
      <path id="Path_931" data-name="Path 931" d="M292.057,144.82a3.537,3.537,0,0,0-1.7.474c-.034.026-.052.036-.026.08l.087.333c.018.044.044.062.089.034a3.4,3.4,0,0,1,1.4-.376c.57,0,1.089.158,1.089,1.088,0,.053-.018.08-.071.08-1.765.016-2.976.491-2.976,1.677a1.285,1.285,0,0,0,1.458,1.29,2.41,2.41,0,0,0,1.51-.553c.035-.044.079-.027.079.035v.423a.064.064,0,0,0,.069.069h.5a.064.064,0,0,0,.07-.069v-2.53c0-.878-.026-2.055-1.581-2.055Zm-.457,4.171c-.6,0-.983-.324-.983-.824,0-.915,1.282-1.169,2.309-1.169a.065.065,0,0,1,.071.07v1.308a.088.088,0,0,1-.036.079,2.174,2.174,0,0,1-1.361.536Z" fill="#fff"/>
      <path id="Path_932" data-name="Path 932" d="M299.878,144.846h-.5a.064.064,0,0,0-.069.071v.561c0,.062-.036.08-.08.026a1.837,1.837,0,0,0-1.432-.684,2.363,2.363,0,0,0,0,4.68,1.835,1.835,0,0,0,1.432-.685c.044-.052.08-.034.08.026v.327c0,1.176-.6,1.6-1.414,1.6a3.006,3.006,0,0,1-1.449-.377.055.055,0,0,0-.088.027l-.079.325a.062.062,0,0,0,.026.088,3.13,3.13,0,0,0,1.722.482,1.885,1.885,0,0,0,1.924-2.15v-4.251a.066.066,0,0,0-.072-.071Zm-1.932,4.109a1.815,1.815,0,0,1,0-3.59,1.549,1.549,0,0,1,1.362.824v1.941a1.548,1.548,0,0,1-1.362.825Z" fill="#fff"/>
      <path id="Path_933" data-name="Path 933" d="M302.213,142.933V149.4a.064.064,0,0,0,.07.069h.508a.064.064,0,0,0,.07-.069v-6.472a.064.064,0,0,0-.07-.071h-.508a.064.064,0,0,0-.07.071Z" fill="#fff"/>
      <path id="Path_934" data-name="Path 934" d="M305.529,143.81a.438.438,0,1,0,0-.877.438.438,0,1,0,0,.877Zm-.326,1.107V149.4a.064.064,0,0,0,.07.069h.5a.065.065,0,0,0,.071-.069v-4.488a.066.066,0,0,0-.071-.071h-.5a.065.065,0,0,0-.07.071Z" fill="#fff"/>
      <path id="Path_935" data-name="Path 935" d="M308.3,149.474h.509a.064.064,0,0,0,.07-.069v-3a1.7,1.7,0,0,1,1.555-1.044c.851,0,1.36.491,1.36,1.659V149.4a.064.064,0,0,0,.072.069h.5a.064.064,0,0,0,.071-.069v-2.469c0-1.633-.852-2.116-1.828-2.116a2.244,2.244,0,0,0-1.65.772c-.043.054-.079.035-.079-.026v-.649a.065.065,0,0,0-.07-.071H308.3a.066.066,0,0,0-.071.071V149.4a.065.065,0,0,0,.071.069Z" fill="#fff"/>
      <path id="Path_936" data-name="Path 936" d="M318.889,147.13a2.109,2.109,0,0,0-2.117-2.31,2.344,2.344,0,0,0,.036,4.68,2,2,0,0,0,1.984-1.22c.019-.044,0-.07-.052-.079l-.474-.071a.076.076,0,0,0-.087.045,1.431,1.431,0,0,1-1.38.78,1.565,1.565,0,0,1-1.545-1.5.064.064,0,0,1,.069-.071h3.495a.065.065,0,0,0,.071-.071v-.183Zm-2.117-1.8a1.414,1.414,0,0,1,1.431,1.51c0,.035-.024.06-.069.06h-2.8a.063.063,0,0,1-.07-.069,1.5,1.5,0,0,1,1.509-1.5Z" fill="#fff"/>
      <path id="Path_937" data-name="Path 937" d="M325.39,149.474h.509a.064.064,0,0,0,.07-.069v-3a1.668,1.668,0,0,1,1.554-1.044c.843,0,1.3.5,1.3,1.659V149.4a.064.064,0,0,0,.07.069h.5a.064.064,0,0,0,.069-.069v-2.433c0-1.555-.763-2.152-1.79-2.152a2.173,2.173,0,0,0-1.624.772c-.045.054-.08.035-.08-.026v-2.633a.064.064,0,0,0-.07-.071h-.509a.065.065,0,0,0-.071.071V149.4a.065.065,0,0,0,.071.069Z" fill="#fff"/>
      <path id="Path_938" data-name="Path 938" d="M335.924,147.13a2.109,2.109,0,0,0-2.115-2.31,2.344,2.344,0,0,0,.034,4.68,2,2,0,0,0,1.985-1.22c.018-.044,0-.07-.054-.079l-.473-.071a.078.078,0,0,0-.088.045,1.426,1.426,0,0,1-1.378.78,1.567,1.567,0,0,1-1.547-1.5.065.065,0,0,1,.071-.071h3.495a.064.064,0,0,0,.07-.071v-.183Zm-2.115-1.8a1.413,1.413,0,0,1,1.43,1.51c0,.035-.026.06-.07.06h-2.8a.063.063,0,0,1-.069-.069,1.5,1.5,0,0,1,1.511-1.5Z" fill="#fff"/>
      <path id="Path_939" data-name="Path 939" d="M340.945,145.03a1.74,1.74,0,0,0-.834-.21,1.661,1.661,0,0,0-1.318.667c-.035.053-.078.036-.078-.027v-.543a.065.065,0,0,0-.071-.071h-.51a.066.066,0,0,0-.071.071V149.4a.065.065,0,0,0,.071.069h.51a.065.065,0,0,0,.071-.069v-2.574a1.279,1.279,0,0,1,1.326-1.371,1.34,1.34,0,0,1,.745.194.057.057,0,0,0,.088-.045l.114-.482a.085.085,0,0,0-.043-.1Z" fill="#fff"/>
      <path id="Path_940" data-name="Path 940" d="M347.387,147.13a2.109,2.109,0,0,0-2.117-2.31,2.344,2.344,0,0,0,.036,4.68,2,2,0,0,0,1.985-1.22c.018-.044,0-.07-.052-.079l-.476-.071a.073.073,0,0,0-.085.045,1.433,1.433,0,0,1-1.38.78,1.565,1.565,0,0,1-1.545-1.5.064.064,0,0,1,.07-.071h3.494a.065.065,0,0,0,.07-.071v-.183Zm-2.117-1.8a1.415,1.415,0,0,1,1.432,1.51c0,.035-.024.06-.07.06h-2.8a.062.062,0,0,1-.068-.069,1.5,1.5,0,0,1,1.508-1.5Z" fill="#fff"/>
    </g>
    <g id="Group_918" data-name="Group 918">
      <path id="Path_941" data-name="Path 941" d="M246.473,119.938l-.222,3.036a10.186,10.186,0,0,0-1.735-.593,6.812,6.812,0,0,0-1.563-.2,2.866,2.866,0,0,0-1.727.45,1.492,1.492,0,0,0-.612,1.273,1.773,1.773,0,0,0,.511,1.285,8.007,8.007,0,0,0,2.091,1.267,9.464,9.464,0,0,1,3.4,2.327,4.567,4.567,0,0,1,.778,2.777,4.862,4.862,0,0,1-1.6,3.844,6.38,6.38,0,0,1-4.381,1.414,11.946,11.946,0,0,1-2.018-.182,21.244,21.244,0,0,1-2.29-.551l.3-3.035a10.911,10.911,0,0,0,2.022.77,7.254,7.254,0,0,0,1.827.251,2.766,2.766,0,0,0,1.8-.526,1.791,1.791,0,0,0,.648-1.468q0-1.318-2.695-2.687l-.5-.246a7.849,7.849,0,0,1-2.853-2.091,4.39,4.39,0,0,1-.713-2.585,4.668,4.668,0,0,1,1.56-3.73,6.391,6.391,0,0,1,4.328-1.352,11.253,11.253,0,0,1,1.742.138,15.222,15.222,0,0,1,1.9.417Z" fill="#fff"/>
      <path id="Path_942" data-name="Path 942" d="M256.317,122.228a2.453,2.453,0,0,0-2.249,1.531,12.313,12.313,0,0,0,0,8.684,2.419,2.419,0,0,0,4.5,0,12.305,12.305,0,0,0-.005-8.684,2.458,2.458,0,0,0-2.244-1.531Zm0-2.845a6.418,6.418,0,0,1,5.26,2.3,11.864,11.864,0,0,1,0,12.843,7.207,7.207,0,0,1-10.532,0,11.9,11.9,0,0,1,.012-12.846,6.417,6.417,0,0,1,5.26-2.3Z" fill="#fff"/>
      <path id="Path_943" data-name="Path 943" d="M265.949,119.674h3.89v10.8a5.236,5.236,0,0,0,.511,2.739,1.945,1.945,0,0,0,1.747.762,1.985,1.985,0,0,0,1.775-.766,5.208,5.208,0,0,0,.514-2.735v-10.8h3.7v10.354q0,3.464-1.491,5.126a7.157,7.157,0,0,1-9.158.009q-1.482-1.66-1.483-5.135V119.674Z" fill="#fff"/>
      <path id="Path_944" data-name="Path 944" d="M281.335,119.674h4.446l5.086,12.3v-12.3h3.306v16.874h-4.446l-5.109-12.328v12.328h-3.283V119.674Z" fill="#fff"/>
      <path id="Path_945" data-name="Path 945" d="M301.371,122.5V133.7h.51a4.53,4.53,0,0,0,3.623-1.4,6.235,6.235,0,0,0,1.215-4.19,6.366,6.366,0,0,0-1.191-4.24,4.568,4.568,0,0,0-3.647-1.376Zm-3.866-2.821h4.3q4.606,0,6.8,2.055t2.2,6.375a8.2,8.2,0,0,1-2.3,6.284q-2.3,2.158-6.694,2.16h-4.3V119.674Z" fill="#fff"/>
      <path id="Path_946" data-name="Path 946" d="M311.1,119.674h2.09l4.328,14.665,3.064-14.665h2.645l2.991,14.665,4.428-14.665h1.971l-5.15,16.874h-2.5l-3.133-14.831-3.168,14.831h-2.485L311.1,119.674Z" fill="#fff"/>
      <path id="Path_947" data-name="Path 947" d="M338.253,121.811l-2.691,8.538h5.269l-2.578-8.538Zm-1.114-2.137H339.5l5.424,16.874h-2.242l-1.285-4.425H335l-1.366,4.425h-2.112l5.614-16.874Z" fill="#fff"/>
      <path id="Path_948" data-name="Path 948" d="M343.652,119.674h2.256l4.552,14.438,4.887-14.438h2.092l-5.952,16.874h-2.152l-5.682-16.874Z" fill="#fff"/>
      <path id="Path_949" data-name="Path 949" d="M358.916,119.674H366.6v1.75h-5.594v5.544h5.3v1.775h-5.3V134.8h5.884v1.751h-7.976V119.674Z" fill="#fff"/>
    </g>
  </g>
</svg>
