<svg xmlns="http://www.w3.org/2000/svg" width="107.743" height="86.168" viewBox="0 0 107.743 86.168">
  <g id="Group_916" data-name="Group 916" transform="translate(-237.897 -251.042)">
    <path id="Path_906" data-name="Path 906" d="M237.9,341.388H243.3a5.45,5.45,0,0,1,2.991.606,2.336,2.336,0,0,1,.862,2.063v.74a2.162,2.162,0,0,1-.474,1.5,2.246,2.246,0,0,1-1.453.639,2.865,2.865,0,0,1,1.586.808,2.131,2.131,0,0,1,.563,1.516v.679a2.656,2.656,0,0,1-.89,2.288,5.837,5.837,0,0,1-3.263.651H237.9v-11.49Zm3.066,2.544v2.039h2.178a1.07,1.07,0,0,0,.707-.184.764.764,0,0,0,.213-.6v-.464a.764.764,0,0,0-.213-.605,1.076,1.076,0,0,0-.707-.183Zm0,4.236v2.149h2.294a1.142,1.142,0,0,0,.746-.2.791.791,0,0,0,.231-.637V349a.787.787,0,0,0-.231-.636,1.127,1.127,0,0,0-.746-.2Z" transform="translate(0 -15.668)" fill="#fff"/>
    <path id="Path_907" data-name="Path 907" d="M255.023,346.934h1.723a1.515,1.515,0,0,0,1.049-.27,1.373,1.373,0,0,0,.279-1v-.438a1.4,1.4,0,0,0-.282-1.007,1.515,1.515,0,0,0-1.046-.274h-1.723v2.986Zm-3.082,5.943v-11.49h4.632a6.726,6.726,0,0,1,3.641.7,2.8,2.8,0,0,1,.987,2.452v.923a2.713,2.713,0,0,1-.563,1.825,2.492,2.492,0,0,1-1.665.8,2.884,2.884,0,0,1,1.7.772,2.354,2.354,0,0,1,.532,1.652v2.371h-3.144v-2.066a1.393,1.393,0,0,0-.283-1.01,1.515,1.515,0,0,0-1.045-.274h-1.707v3.35Z" transform="translate(-2.435 -15.668)" fill="#fff"/>
    <path id="Path_908" data-name="Path 908" d="M269.183,348.532H271.7l-1.141-4.76h-.2l-1.175,4.76Zm-4.392,4.345,3.3-11.49h4.739l3.227,11.49h-3.3l-.516-2.007h-3.623l-.524,2.007Z" transform="translate(-4.664 -15.668)" fill="#fff"/>
    <path id="Path_909" data-name="Path 909" d="M280.362,352.878v-11.49h4.583l3.572,8.536v-8.536h2.939v11.49h-4.583l-3.573-8.611v8.611Z" transform="translate(-7.364 -15.668)" fill="#fff"/>
    <path id="Path_910" data-name="Path 910" d="M296.8,352.878v-11.49h5.846a4.636,4.636,0,0,1,3.416,1.018,5.1,5.1,0,0,1,.979,3.565v2.323a5.1,5.1,0,0,1-.979,3.564,4.636,4.636,0,0,1-3.416,1.019Zm3.082-2.56h2.291a1.852,1.852,0,0,0,1.39-.379,3.229,3.229,0,0,0,.332-1.853v-1.89a3.244,3.244,0,0,0-.335-1.859,1.843,1.843,0,0,0-1.388-.388h-2.291v6.37Z" transform="translate(-10.214 -15.668)" fill="#fff"/>
    <path id="Path_911" data-name="Path 911" d="M312.022,352.878v-11.49h1.958l6.226,10.256V341.388h1.266v11.49h-1.96l-6.225-10.27v10.27Z" transform="translate(-12.855 -15.668)" fill="#fff"/>
    <path id="Path_912" data-name="Path 912" d="M328.345,348.8h4.979l-2.294-6.194h-.408l-2.277,6.194Zm-2.81,4.077,4.246-11.49h2.091l4.268,11.49h-1.313l-1.094-2.939H327.92l-1.072,2.939Z" transform="translate(-15.198 -15.668)" fill="#fff"/>
    <path id="Path_913" data-name="Path 913" d="M340.406,352.878v-11.49H342.5l3.934,10.239,3.9-10.239h2.107v11.49H351.17V342.461L347.2,352.878h-1.564l-3.968-10.417v10.417Z" transform="translate(-17.777 -15.668)" fill="#fff"/>
    <path id="Path_914" data-name="Path 914" d="M358.5,352.878v-11.49h8.059v1.217H359.76v3.762h6.6v1.17h-6.6v4.14h6.794v1.2Z" transform="translate(-20.914 -15.668)" fill="#fff"/>
    <path id="Path_915" data-name="Path 915" d="M299.136,254.162a7.489,7.489,0,0,1-4.787,11.755c-.814.142-1.467.05-2.259.171a6.706,6.706,0,0,0-3.739,1.894,6.508,6.508,0,0,0-1.945,4.7,7.468,7.468,0,0,1-2.195,5.3,6.518,6.518,0,0,1-4,2.083c-.825.06-1.468.051-2.258.171a6.727,6.727,0,0,0-5.674,5.953c-.043.422-.027.811-.06,1.228a7.235,7.235,0,0,1-6.742,6.743c-.418.031-.808.016-1.228.06a6.722,6.722,0,0,0-5.952,5.674c-.121.789-.031,1.444-.172,2.257a7.491,7.491,0,0,1-11.756,4.788,7.632,7.632,0,0,1-1.847-1.909,7.489,7.489,0,0,1,5.365-11.616c.628-.072,1.2-.026,1.837-.124a6.73,6.73,0,0,0,5.621-5.749c.074-.547.046-1.044.1-1.587a7.233,7.233,0,0,1,6.569-6.569c.543-.052,1.042-.026,1.588-.1a6.728,6.728,0,0,0,5.748-5.622c.1-.634.054-1.209.123-1.837a7.448,7.448,0,0,1,1.284-3.412c3.143-4.529,7.49-1.877,10.847-5.183,1.912-1.912,1.75-3.222,2.013-5.549a7.491,7.491,0,0,1,7.439-6.637v.007a7.465,7.465,0,0,1,4.178,1.267,7.628,7.628,0,0,1,1.909,1.846Z" transform="translate(-0.928 0)" fill="#fff" fill-rule="evenodd"/>
    <path id="Path_916" data-name="Path 916" d="M305.388,294.148a7.441,7.441,0,0,1-1.824,1.869l-.018-.018a7.449,7.449,0,0,1-3.725,1.338c-.418.032-.808.016-1.23.059a6.723,6.723,0,0,0-5.952,5.674c-.121.791-.031,1.444-.172,2.26a7.491,7.491,0,0,1-11.756,4.785,7.5,7.5,0,0,1-.925-11.379,7.463,7.463,0,0,1,4.444-2.146c.628-.071,1.206-.026,1.838-.123a6.73,6.73,0,0,0,5.622-5.75c.073-.546.045-1.045.1-1.585a7.463,7.463,0,0,1,1.326-3.566l-.011-.011a7.366,7.366,0,0,1,1.872-1.818l.007.007a7.454,7.454,0,0,1,3.414-1.221c.542-.052,1.041-.026,1.588-.1a6.73,6.73,0,0,0,5.749-5.621c.1-.633.052-1.21.122-1.838a7.49,7.49,0,0,1,11.618-5.363,7.555,7.555,0,0,1,1.907,1.847,7.49,7.49,0,0,1-4.786,11.755c-.813.141-1.469.05-2.257.169a6.733,6.733,0,0,0-5.675,5.955c-.043.419-.026.808-.059,1.227a7.458,7.458,0,0,1-1.235,3.574l.021.02Z" transform="translate(-6.884 -2.998)" fill="#fff" fill-rule="evenodd"/>
    <path id="Path_917" data-name="Path 917" d="M353.515,302.634a7.48,7.48,0,1,1-5.293,2.187,7.461,7.461,0,0,1,5.293-2.187v0Z" transform="translate(-18.752 -8.946)" fill="#fff" fill-rule="evenodd"/>
    <path id="Path_918" data-name="Path 918" d="M339.389,288.747A7.491,7.491,0,0,1,334.6,300.5c-.813.14-1.467.051-2.258.17a6.644,6.644,0,0,0-5.593,5.592c-.12.791-.031,1.446-.171,2.259a7.49,7.49,0,0,1-11.756,4.787,7.6,7.6,0,0,1-1.846-1.908,7.487,7.487,0,0,1,5.364-11.616c.629-.073,1.2-.026,1.839-.125a6.65,6.65,0,0,0,5.559-5.559c.1-.634.051-1.21.123-1.838a7.486,7.486,0,0,1,7.442-6.637v.007a7.476,7.476,0,0,1,4.176,1.266,7.583,7.583,0,0,1,1.907,1.847Z" transform="translate(-12.801 -5.998)" fill="#fff" fill-rule="evenodd"/>
    <path id="Path_919" data-name="Path 919" d="M304.013,301.94c.112.006.226.013.341.026,3.956.406,5.9,3.51,6.035,7.263l8.085-7.94a9.538,9.538,0,0,1-1.6-.114,6.7,6.7,0,0,1-3.711-1.888,7.048,7.048,0,0,1-1.909-3.984c-.026-.185-.04-.365-.048-.543l-7.19,7.181Z" transform="translate(-11.466 -7.581)" fill="#fff" fill-rule="evenodd"/>
    <path id="Path_920" data-name="Path 920" d="M286.755,284.7c.112,0,.226.012.343.024,3.955.407,6.2,3.595,6.212,7.28l7.906-7.954a9.7,9.7,0,0,1-1.6-.114,6.721,6.721,0,0,1-3.711-1.89,7.052,7.052,0,0,1-1.911-3.982c-.026-.186-.039-.368-.046-.545l-7.19,7.181Z" transform="translate(-8.473 -4.592)" fill="#fff" fill-rule="evenodd"/>
  </g>
</svg>
