<svg xmlns="http://www.w3.org/2000/svg" width="176.846" height="41.579" viewBox="0 0 176.846 41.579">
  <g id="Group_931" data-name="Group 931" transform="translate(-235.859 -268.107)">
    <g id="Group_881" data-name="Group 881" transform="translate(235.859 269.906)">
      <g id="Group_880" data-name="Group 880" transform="translate(0 0)">
        <path id="Path_816" data-name="Path 816" d="M235.859,298.142V271.633h5.175v21.892H253.06v4.617Z" transform="translate(-235.859 -271.484)" fill="#fff"/>
        <path id="Path_817" data-name="Path 817" d="M272.592,275.31v-3.946h4.952v3.946Zm.075,22.712v-19.4h4.84v19.4Z" transform="translate(-252.299 -271.364)" fill="#fff"/>
        <path id="Path_818" data-name="Path 818" d="M300.861,303.722V291.994c0-2.643-1.676-3.537-3.2-3.537s-3.239.894-3.239,3.537v11.728h-4.84v-19.4h4.728v1.788a6.637,6.637,0,0,1,4.84-2.011,6.3,6.3,0,0,1,4.579,1.713,7.188,7.188,0,0,1,1.973,5.51v12.4Z" transform="translate(-259.902 -277.065)" fill="#fff"/>
        <path id="Path_819" data-name="Path 819" d="M338.364,298.142l-4.766-8.079-2.047,2.308v5.771H326.71V271.633h4.841v15.042l6.441-7.931h5.845l-6.925,7.819,7.446,11.579Z" transform="translate(-276.52 -271.484)" fill="#fff"/>
        <path id="Path_820" data-name="Path 820" d="M423.382,298.142h-11.1V271.633h10.648c5.175,0,8.191,2.9,8.191,7.446a6.131,6.131,0,0,1-3.277,5.473,6.159,6.159,0,0,1,3.649,5.956C431.5,295.461,428.111,298.142,423.382,298.142Zm-.856-21.892h-5.064v6.106h5.064c2.2,0,3.425-1.229,3.425-3.053S424.723,276.25,422.526,276.25Zm.335,10.76h-5.4v6.515h5.4a3.264,3.264,0,1,0,0-6.515Z" transform="translate(-314.821 -271.484)" fill="#fff"/>
        <path id="Path_821" data-name="Path 821" d="M465.257,303.9v-1.787a6.637,6.637,0,0,1-4.84,2.01,6.3,6.3,0,0,1-4.579-1.713,7.187,7.187,0,0,1-1.973-5.51V284.5h4.84v11.728c0,2.643,1.676,3.536,3.2,3.536s3.239-.893,3.239-3.536V284.5h4.84v19.4Z" transform="translate(-333.429 -277.245)" fill="#fff"/>
        <path id="Path_822" data-name="Path 822" d="M491.116,275.31v-3.946h4.952v3.946Zm.075,22.712v-19.4h4.84v19.4Z" transform="translate(-350.101 -271.364)" fill="#fff"/>
        <path id="Path_823" data-name="Path 823" d="M513.514,298.142a5.272,5.272,0,0,1-5.659-5.548V271.633h4.84V292.3c0,1.154.484,1.75,1.713,1.75h1.862v4.1Z" transform="translate(-357.593 -271.484)" fill="#fff"/>
        <path id="Path_824" data-name="Path 824" d="M538.066,298.142v-1.825a5.824,5.824,0,0,1-4.8,2.048,6.852,6.852,0,0,1-4.765-1.75c-1.936-1.936-1.973-5.287-1.973-8.191s.037-6.218,1.973-8.154a6.755,6.755,0,0,1,4.728-1.75,5.811,5.811,0,0,1,4.728,1.936v-8.824h4.84v26.509Zm-3.425-15.265c-2.9,0-3.277,2.383-3.277,5.548s.372,5.584,3.277,5.584,3.314-2.419,3.314-5.584S537.545,282.877,534.641,282.877Z" transform="translate(-365.948 -271.484)" fill="#fff"/>
      </g>
    </g>
    <g id="Group_882" data-name="Group 882" transform="translate(307.121 268.107)">
      <path id="Path_825" data-name="Path 825" d="M366.806,281.219h2.674s1.363.084,1.363-.953c0-.851-.667-1.014-1.359-.985l-2.679-.015a13.01,13.01,0,0,1,1-3.786,9.123,9.123,0,0,1,1.993-2.909,8.864,8.864,0,0,1,2.848-1.853,10.329,10.329,0,0,1,7.252,0,8.137,8.137,0,0,1,2.65,1.733,7.057,7.057,0,0,1,1.614,2.47,7.9,7.9,0,0,1,.539,2.869,7.332,7.332,0,0,1-.578,3.009,8.92,8.92,0,0,1-1.554,2.371,14.71,14.71,0,0,1-2.231,1.992q-1.255.917-2.61,1.834-1.792,1.236-3.287,2.43a9.134,9.134,0,0,0-2.331,2.71h10.766s1.111.033,1.111-.981c0-.994-1.111-.973-1.111-.973h-6.226c.687-.52,1.415-1.046,2.175-1.568q1.381-.937,2.664-1.873a16.654,16.654,0,0,0,2.529-2.257,10.928,10.928,0,0,0,1.89-2.889,9.291,9.291,0,0,0,.748-3.8,9.884,9.884,0,0,0-.67-3.572,9.042,9.042,0,0,0-2.056-3.149,10.109,10.109,0,0,0-3.277-2.154,12.27,12.27,0,0,0-8.744-.006,10.8,10.8,0,0,0-3.47,2.258,11.083,11.083,0,0,0-2.421,3.522,15,15,0,0,0-1.149,4.352,1.953,1.953,0,0,0,1.941,2.177Z" transform="translate(-364.853 -268.107)" fill="#fff"/>
      <path id="Path_826" data-name="Path 826" d="M384.821,298.807l0,.555V301.3H367.094v-3.427a10.435,10.435,0,0,1,1.315-2.989,15.145,15.145,0,0,1,2.013-2.49,22.528,22.528,0,0,1,2.41-2.092q1.276-.955,2.471-1.793.916-.636,1.813-1.335t1.614-1.375a7.136,7.136,0,0,0,1.156-1.374,3.681,3.681,0,0,0,.508-1.679,3.56,3.56,0,0,0-1.205-2.9,3.974,3.974,0,0,0-2.81-1.056,4.274,4.274,0,0,0-3.314,1.375,5.121,5.121,0,0,0-1.07,1.748.9.9,0,0,0,.7,1.338c.941.2,1.229-1.012,1.82-1.747a2.193,2.193,0,0,1,1.866-.76,2.042,2.042,0,0,1,1.479.534,1.891,1.891,0,0,1,.512,1.736,2.825,2.825,0,0,1-.983,1.37c-.43.406-.924.828-1.47,1.251-.584.454-1.166.882-1.736,1.278q-1.218.855-2.521,1.829a24.689,24.689,0,0,0-2.621,2.274,17.286,17.286,0,0,0-2.27,2.81,12.48,12.48,0,0,0-1.629,3.806v5.625h21.64v-4.591s.08-1.2-.991-1.2C384.679,297.458,384.821,298.807,384.821,298.807Z" transform="translate(-364.981 -272.885)" fill="#fff"/>
    </g>
    <path id="Path_827" data-name="Path 827" d="M469.334,334.871a3.539,3.539,0,0,1-4.926,0c-.921-.921-.9-2.06-.9-3.633s-.026-2.713.9-3.634a3.538,3.538,0,0,1,4.926,0c.921.921.908,2.06.908,3.634S470.255,333.949,469.334,334.871Zm-1.318-6.193a1.48,1.48,0,0,0-1.139-.486,1.51,1.51,0,0,0-1.152.486c-.345.384-.435.806-.435,2.559s.09,2.175.435,2.558a1.508,1.508,0,0,0,1.152.487,1.478,1.478,0,0,0,1.139-.487c.346-.383.448-.806.448-2.558S468.361,329.062,468.015,328.678Z" transform="translate(-101.888 -26.181)" fill="#fff"/>
    <path id="Path_828" data-name="Path 828" d="M484.368,335.854l-3.608-5.592v5.592h-1.779v-9.11h1.587l3.608,5.579v-5.579h1.779v9.11Z" transform="translate(-108.811 -26.243)" fill="#fff"/>
    <path id="Path_829" data-name="Path 829" d="M498.378,328.331v7.524H496.6v-7.524h-2.38v-1.587h6.538v1.587Z" transform="translate(-115.631 -26.243)" fill="#fff"/>
    <path id="Path_830" data-name="Path 830" d="M511.653,335.854l-.538-1.613h-3.237l-.55,1.613h-1.856l3.314-9.11h1.394l3.327,9.11Zm-2.124-6.423-1.151,3.314h2.264Z" transform="translate(-120.668 -26.243)" fill="#fff"/>
    <path id="Path_831" data-name="Path 831" d="M526.891,335.854l-1.778-3.634h-1.279v3.634h-1.778v-9.11h3.569a2.754,2.754,0,0,1,2.956,2.789,2.453,2.453,0,0,1-1.663,2.393l2.034,3.928Zm-1.382-7.524h-1.676v2.405h1.676a1.206,1.206,0,1,0,0-2.405Z" transform="translate(-128.089 -26.243)" fill="#fff"/>
    <path id="Path_832" data-name="Path 832" d="M537.2,335.854v-9.11h1.778v9.11Z" transform="translate(-134.867 -26.243)" fill="#fff"/>
    <path id="Path_833" data-name="Path 833" d="M549.529,334.871a3.539,3.539,0,0,1-4.926,0c-.921-.921-.9-2.06-.9-3.633s-.025-2.713.9-3.634a3.538,3.538,0,0,1,4.926,0c.921.921.909,2.06.909,3.634S550.45,333.949,549.529,334.871Zm-1.318-6.193a1.482,1.482,0,0,0-1.139-.486,1.507,1.507,0,0,0-1.151.486c-.345.384-.435.806-.435,2.559s.09,2.175.435,2.558a1.506,1.506,0,0,0,1.151.487,1.48,1.48,0,0,0,1.139-.487c.345-.383.447-.806.447-2.558S548.556,329.062,548.211,328.678Z" transform="translate(-137.779 -26.181)" fill="#fff"/>
  </g>
</svg>
