<svg xmlns="http://www.w3.org/2000/svg" width="187.528" height="49.933" viewBox="0 0 187.528 49.933">
  <g id="Group_5080" data-name="Group 5080" transform="translate(-709.184 -1535.798)">
    <text id="Construction" transform="translate(828.712 1556.849)" fill="#fff" font-size="16" font-family="Poppins-Bold, Poppins" font-weight="700" letter-spacing="0.038em"><tspan x="-67.096" y="0">Construction</tspan></text>
    <text id="company_ltd." data-name="company ltd." transform="translate(761.712 1575.142)" fill="#fff" font-size="16" font-family="Roboto-Regular, Roboto" letter-spacing="0.038em" opacity="0.5"><tspan x="0" y="0">company ltd.</tspan></text>
    <g id="Group_920" data-name="Group 920" transform="translate(709.184 1535.798)">
      <path id="Lock" d="M1225.845,350.686V367.5l-19.5,11.258-19.5-11.258V350.686l3.983,2.52v12l1.381.8V345.237l3.744-4.563V368.16l1.117.644V339.313l3.744-4.563v36.216l1.116.644V333.389l3.744-4.563v44.946l.669.386.67-.387V328.826l3.744,4.563V371.61l1.116-.644V334.75l3.744,4.563V368.8l1.117-.644V340.673l3.744,4.563V366l1.381-.8v-12Z" transform="translate(-1186.847 -328.826)" fill="#fff"/>
    </g>
  </g>
</svg>
